<svg width="31" height="46" viewBox="0 0 31 46" fill="none" xmlns="http://www.w3.org/2000/svg">
<path d="M28.1887 9.63422H24.9497V8.79219C24.9497 7.13481 23.6066 5.79177 21.9506 5.79177H20.5178C20.4771 2.86433 18.0928 0.513672 15.1653 0.513672C12.2379 0.513672 9.85353 2.86433 9.81143 5.79177H8.37858C6.72259 5.79177 5.37956 7.13481 5.37956 8.79219V9.63422H2.14197C1.06839 9.63422 0.166016 10.5015 0.166016 11.5751V43.544C0.166016 44.6176 1.06839 45.4863 2.14197 45.4863H28.1901C29.265 45.4863 30.166 44.6176 30.166 43.544V11.5737C30.1646 10.5015 29.2622 9.63422 28.1887 9.63422ZM15.1653 3.31902C16.5462 3.31902 17.6746 4.42067 17.7153 5.79177H12.6154C12.6575 4.42067 13.7844 3.31902 15.1653 3.31902ZM27.6947 43.1062H2.63596V12.0101H5.37956V14.205H24.9497V12.0101H27.6933V43.1062H27.6947Z" fill="white"/>
<path d="M24.223 18.3226H17.9148C16.9226 18.3226 16.1143 19.0622 16.1143 20.0572C16.1143 21.0522 16.9226 21.7946 17.9148 21.7946H24.223C25.2166 21.7946 26.0221 21.0522 26.0221 20.0572C26.0221 19.0622 25.2166 18.3226 24.223 18.3226Z" fill="white"/>
<path d="M8.79212 19.9701L7.43786 18.9148C7.10386 18.6523 6.62391 18.6958 6.34042 19.0102L5.56015 19.8747C5.41139 20.0403 5.33701 20.2606 5.35525 20.4851C5.3749 20.7083 5.48436 20.9132 5.65978 21.0507L8.02167 22.9144C8.59144 23.3649 9.40821 23.3172 9.92184 22.8035L14.0604 18.665C14.2611 18.4643 14.3734 18.1934 14.3734 17.9099C14.3734 17.6265 14.2611 17.3542 14.0604 17.1549L13.5875 16.682C13.1707 16.2652 12.4956 16.2652 12.0788 16.682L8.79212 19.9701Z" fill="white"/>
<path d="M24.223 26.3695H17.9148C16.9226 26.3695 16.1143 27.1119 16.1143 28.1069C16.1143 29.0991 16.9226 29.8443 17.9148 29.8443H24.223C25.2166 29.8443 26.0221 29.0991 26.0221 28.1069C26.0221 27.1133 25.2166 26.3695 24.223 26.3695Z" fill="white"/>
<path d="M8.79212 28.0171L7.43786 26.9618C7.10386 26.7007 6.62391 26.7456 6.34042 27.0586L5.56015 27.9231C5.41139 28.0873 5.33701 28.309 5.35525 28.5335C5.3749 28.7553 5.48436 28.963 5.65978 29.0991L8.02167 30.9628C8.59284 31.4119 9.40961 31.3627 9.92325 30.8505L14.0632 26.712C14.2639 26.5113 14.3762 26.2404 14.3762 25.9569C14.3762 25.6763 14.2639 25.4012 14.0632 25.2019L13.5903 24.729C13.1735 24.3122 12.4984 24.3122 12.0816 24.729L8.79212 28.0171Z" fill="white"/>
<path d="M24.223 34.1428H17.9148C16.9226 34.1428 16.1143 34.8852 16.1143 35.8802C16.1143 36.8752 16.9226 37.6176 17.9148 37.6176H24.223C25.2166 37.6176 26.0221 36.8752 26.0221 35.8802C26.0221 34.8852 25.2166 34.1428 24.223 34.1428Z" fill="white"/>
<path d="M8.79247 35.7905L7.43821 34.7351C7.10421 34.4713 6.62425 34.5162 6.34077 34.8305L5.56049 35.6936C5.41173 35.8606 5.33595 36.0796 5.3556 36.3055C5.37384 36.5286 5.48471 36.7335 5.66013 36.8697L8.02202 38.7361C8.59319 39.1852 9.40996 39.1361 9.92359 38.6239L14.0636 34.4839C14.4804 34.0657 14.4804 33.3949 14.0636 32.9753L13.5906 32.5023C13.3899 32.3003 13.1191 32.188 12.8356 32.188C12.5521 32.188 12.2813 32.3003 12.0806 32.5023L8.79247 35.7905Z" fill="white"/>
</svg>
