<svg width="941" height="328" viewBox="0 0 941 328" fill="none" xmlns="http://www.w3.org/2000/svg">
<path d="M904 18.0429C826.619 27.0447 782.683 52.3883 748.487 84.4843C720.167 157.399 690.573 258.787 559.441 309.745C494.961 334.802 431.688 330.789 370.707 317.244C286.721 329.249 227.517 302.6 0 309.745C102.73 204.784 230.677 286.142 370.707 317.244C416.158 310.747 468.868 292.93 559.441 252.309C663.491 205.644 693.31 136.274 748.487 84.4843C774.754 16.8558 799.924 -26.2774 904 18.0429Z" fill="#3C77EF" fill-opacity="0.09"/>
<path d="M941 18.0429C860.452 27.0447 814.718 52.3883 779.122 84.4844C749.643 157.399 718.838 258.787 582.338 309.745C515.22 334.802 449.357 330.789 385.88 317.244C298.456 329.249 236.83 302.6 0 309.745C106.934 204.784 240.119 286.142 385.88 317.244C433.191 310.747 488.058 292.93 582.338 252.309C690.647 205.644 721.686 136.274 779.122 84.4844C806.464 16.8558 832.664 -26.2774 941 18.0429Z" fill="#8E38CF" fill-opacity="0.03"/>
</svg>
