<svg width="14" height="17" viewBox="0 0 14 17" fill="none" xmlns="http://www.w3.org/2000/svg">
<path d="M11.4583 9.99998C11.7046 9.99998 11.9484 10.0485 12.1758 10.1427C12.4033 10.2369 12.6101 10.3751 12.7842 10.5492C12.9583 10.7233 13.0964 10.93 13.1906 11.1575C13.2849 11.3849 13.3334 11.6287 13.3334 11.875V12.6292C13.3334 13.0797 13.2362 13.5247 13.0482 13.9342C12.8602 14.3435 12.5859 14.7073 12.2442 15.0008C10.9392 16.1208 9.07252 16.6667 6.66418 16.6667C4.25584 16.6667 2.39084 16.12 1.08834 15C0.747051 14.7068 0.473125 14.3432 0.285293 13.9343C0.0974608 13.5254 0.000136719 13.0808 0 12.6308V11.8742C0.000234375 11.377 0.197871 10.9004 0.549473 10.5489C0.901074 10.1974 1.37787 10 1.875 10L11.4583 9.99998ZM6.57918 0.00666022L6.66418 0C6.81518 0 6.96109 0.0547071 7.07492 0.153984C7.18875 0.253262 7.26283 0.390391 7.28334 0.54L7.28918 0.625V1.25H10.2058C10.7031 1.25 11.18 1.44754 11.5317 1.79918C11.8833 2.15082 12.0808 2.62771 12.0808 3.125V6.87916C12.0808 7.37641 11.8833 7.85332 11.5317 8.205C11.18 8.55658 10.7031 8.75416 10.2058 8.75416H3.1225C2.62521 8.75416 2.1483 8.55658 1.79668 8.205C1.44504 7.85334 1.2475 7.37643 1.2475 6.87916V3.125C1.2475 2.62771 1.44504 2.1508 1.79668 1.79918C2.14832 1.44756 2.62521 1.25 3.1225 1.25H6.03916V0.62584C6.03916 0.474805 6.09383 0.328887 6.19316 0.215059C6.29242 0.101231 6.42951 0.0272071 6.57918 0.00666022ZM4.78918 3.74998C4.51291 3.74998 4.24797 3.85973 4.05262 4.05508C3.85727 4.25043 3.74752 4.51537 3.74752 4.79164C3.74752 5.06791 3.85727 5.33285 4.05262 5.5282C4.24797 5.72355 4.51291 5.8333 4.78918 5.8333C5.06543 5.8333 5.33043 5.72355 5.52576 5.5282C5.72109 5.33285 5.83084 5.06791 5.83084 4.79164C5.83084 4.51537 5.72109 4.25043 5.52576 4.05508C5.33043 3.85973 5.06543 3.74998 4.78918 3.74998ZM8.53334 3.74998C8.39408 3.74604 8.25551 3.77006 8.12576 3.82061C7.99602 3.87115 7.87768 3.94723 7.77785 4.0443C7.67793 4.14139 7.59859 4.2575 7.54436 4.38578C7.4902 4.51408 7.46219 4.65193 7.46219 4.79121C7.46219 4.93049 7.4902 5.06834 7.54436 5.19664C7.59861 5.32494 7.67793 5.44105 7.77785 5.53813C7.87768 5.63521 7.99602 5.71127 8.12576 5.76184C8.25551 5.8124 8.3941 5.83641 8.53334 5.83246C8.80441 5.82479 9.06176 5.71172 9.25076 5.51728C9.43984 5.32285 9.54551 5.06236 9.54551 4.79121C9.54551 4.52006 9.43984 4.25957 9.25076 4.06514C9.06176 3.8707 8.80443 3.75766 8.53334 3.74998Z" fill="#3C77EF"/>
</svg>
