<svg width="53" height="32" viewBox="0 0 53 32" fill="none" xmlns="http://www.w3.org/2000/svg">
<path d="M14.5293 3.26103V15.9994C14.5293 16.0502 14.5318 16.1009 14.5369 16.1514C14.5391 16.1731 14.5432 16.1941 14.5462 16.2156C14.5501 16.2436 14.5534 16.2718 14.559 16.2996C14.564 16.3246 14.5709 16.3489 14.5771 16.3734C14.583 16.3974 14.5883 16.4215 14.5954 16.4451C14.6028 16.4693 14.6119 16.4927 14.6205 16.5164C14.6289 16.5399 14.6366 16.5635 14.6462 16.5866C14.6553 16.6089 14.6662 16.6301 14.6763 16.6519C14.6875 16.6755 14.698 16.6992 14.7103 16.7225C14.7216 16.7432 14.7342 16.7629 14.7463 16.7833C14.7599 16.8058 14.7728 16.8289 14.7875 16.851C14.8025 16.8734 14.8192 16.8945 14.8354 16.9161C14.8492 16.9346 14.8619 16.9535 14.8767 16.9713C14.9087 17.0103 14.9425 17.0479 14.9782 17.0836L23.9822 26.0876C21.7995 27.805 19.0482 28.8306 16.0619 28.8306C8.98699 28.8306 3.23116 23.0748 3.23116 16C3.23116 9.44365 8.17432 4.02088 14.5293 3.26103ZM28.8007 14.4674H17.5944V3.26103C23.4467 3.9609 28.1009 8.61504 28.8007 14.4674ZM26.1494 23.9203L19.7618 17.5326H28.8007C28.5146 19.9245 27.5687 22.1167 26.1494 23.9203ZM16.0619 31.8958C24.8268 31.8958 31.9577 24.7649 31.9577 16C31.9577 7.235 24.8268 0.104126 16.0619 0.104126C7.29687 0.104126 0.166016 7.235 0.166016 16C0.166016 24.7649 7.29687 31.8958 16.0619 31.8958Z" fill="white"/>
<path d="M35.3744 5.97331H37.3448C38.1513 5.97331 38.8051 5.31635 38.8051 4.506C38.8051 3.69566 38.1513 3.0387 37.3448 3.0387H35.3744C34.5679 3.0387 33.9141 3.69566 33.9141 4.506C33.9141 5.31635 34.5679 5.97331 35.3744 5.97331Z" fill="white"/>
<path d="M42.3364 5.97331H50.9255C51.7952 5.97331 52.5002 5.31635 52.5002 4.506C52.5002 3.69566 51.7952 3.0387 50.9255 3.0387H42.3364C41.4667 3.0387 40.7617 3.69566 40.7617 4.506C40.7617 5.31635 41.4667 5.97331 42.3364 5.97331Z" fill="white"/>
<path d="M35.4588 13.799H41.6623C42.5154 13.799 43.207 13.0324 43.207 12.0871C43.207 11.1416 42.5154 10.3752 41.6623 10.3752H35.4588C34.6057 10.3752 33.9141 11.1416 33.9141 12.0871C33.9141 13.0324 34.6057 13.799 35.4588 13.799Z" fill="white"/>
<path d="M50.9673 10.3752H46.6954C45.8491 10.3752 45.1631 11.1416 45.1631 12.0871C45.1631 13.0324 45.8491 13.799 46.6954 13.799H50.9673C51.8136 13.799 52.4996 13.0324 52.4996 12.0871C52.4996 11.1416 51.8136 10.3752 50.9673 10.3752Z" fill="white"/>
<path d="M35.3744 21.6246H37.3448C38.1513 21.6246 38.8051 20.8582 38.8051 19.9128C38.8051 18.9674 38.1513 18.2009 37.3448 18.2009H35.3744C34.5679 18.2009 33.9141 18.9674 33.9141 19.9128C33.9141 20.8582 34.5679 21.6246 35.3744 21.6246Z" fill="white"/>
<path d="M50.9255 18.2009H42.3364C41.4667 18.2009 40.7617 18.9674 40.7617 19.9128C40.7617 20.8582 41.4667 21.6246 42.3364 21.6246H50.9255C51.7952 21.6246 52.5002 20.8582 52.5002 19.9128C52.5002 18.9674 51.7952 18.2009 50.9255 18.2009Z" fill="white"/>
<path d="M35.4374 29.4502H39.7272C40.5685 29.4502 41.2506 28.6839 41.2506 27.7383C41.2506 26.7931 40.5685 26.0265 39.7272 26.0265H35.4374C34.5961 26.0265 33.9141 26.7931 33.9141 27.7383C33.9141 28.6839 34.5961 29.4502 35.4374 29.4502Z" fill="white"/>
<path d="M50.9481 26.0265H44.759C43.9019 26.0265 43.207 26.7931 43.207 27.7383C43.207 28.6839 43.9019 29.4502 44.759 29.4502H50.9481C51.8051 29.4502 52.5 28.6839 52.5 27.7383C52.5 26.7931 51.8051 26.0265 50.9481 26.0265Z" fill="white"/>
</svg>
