<svg width="423" height="283" viewBox="0 0 423 283" fill="none" xmlns="http://www.w3.org/2000/svg">
<g filter="url(#filter0_d_3964_104353)">
<circle cx="153" cy="83" r="23" fill="#50011A"/>
<circle cx="153" cy="83" r="22.5" stroke="#FF0000" stroke-dasharray="2 2"/>
</g>
<circle cx="153.5" cy="83.5" r="39" stroke="#FF0000" stroke-opacity="0.3" stroke-dasharray="2 2"/>
<circle cx="153" cy="83" r="69.5" stroke="white" stroke-opacity="0.2" stroke-dasharray="2 2"/>
<circle cx="153.5" cy="83.5" r="53" stroke="white" stroke-dasharray="2 2"/>
<path d="M421 208H352L346.5 243.5L333.5 170L322.5 263.5L310 208L304 232L292 208H265.5V232L238 177V248.5L227.5 198.5L222.5 281L206.5 170L199.5 232L191 208H174L162.5 255.5L152.5 87L142.5 273L128 208L118 243.5L105.5 189.5L93.5 216L82.5 177L74 248.5L64 208L54 243.5L39.5 184.5L33.5 243.5L25.5 208H2" stroke="url(#paint0_linear_3964_104353)" stroke-width="3" stroke-linecap="round" stroke-linejoin="round"/>
<rect x="273.5" y="62.5" width="83" height="38" rx="3.5" fill="url(#paint1_linear_3964_104353)" fill-opacity="0.5"/>
<rect x="273.5" y="62.5" width="83" height="38" rx="3.5" stroke="url(#paint2_linear_3964_104353)"/>
<path d="M289.062 77.3516L285.82 87H283.547L287.797 75.625H289.25L289.062 77.3516ZM291.773 87L288.516 77.3516L288.32 75.625H289.781L294.055 87H291.773ZM291.625 82.7734V84.4688H285.523V82.7734H291.625ZM296.891 80.3516V87H294.828V78.5469H296.766L296.891 80.3516ZM296.562 82.4688H295.953C295.958 81.8542 296.042 81.2969 296.203 80.7969C296.365 80.2969 296.591 79.8672 296.883 79.5078C297.18 79.1484 297.531 78.8724 297.938 78.6797C298.344 78.487 298.797 78.3906 299.297 78.3906C299.703 78.3906 300.07 78.4479 300.398 78.5625C300.727 78.6771 301.008 78.8594 301.242 79.1094C301.482 79.3594 301.664 79.6875 301.789 80.0938C301.919 80.4948 301.984 80.9896 301.984 81.5781V87H299.906V81.5625C299.906 81.1771 299.849 80.8724 299.734 80.6484C299.625 80.4245 299.464 80.2656 299.25 80.1719C299.042 80.0781 298.784 80.0312 298.477 80.0312C298.159 80.0312 297.88 80.0964 297.641 80.2266C297.406 80.3516 297.208 80.526 297.047 80.75C296.891 80.974 296.771 81.2318 296.688 81.5234C296.604 81.8151 296.562 82.1302 296.562 82.4688ZM303.438 82.8594V82.6953C303.438 82.0755 303.526 81.5052 303.703 80.9844C303.88 80.4583 304.138 80.0026 304.477 79.6172C304.815 79.2318 305.229 78.9323 305.719 78.7188C306.208 78.5 306.766 78.3906 307.391 78.3906C308.026 78.3906 308.589 78.5 309.078 78.7188C309.573 78.9323 309.99 79.2318 310.328 79.6172C310.667 80.0026 310.924 80.4583 311.102 80.9844C311.279 81.5052 311.367 82.0755 311.367 82.6953V82.8594C311.367 83.474 311.279 84.0443 311.102 84.5703C310.924 85.0911 310.667 85.5469 310.328 85.9375C309.99 86.3229 309.576 86.6224 309.086 86.8359C308.596 87.0495 308.036 87.1562 307.406 87.1562C306.781 87.1562 306.221 87.0495 305.727 86.8359C305.232 86.6224 304.815 86.3229 304.477 85.9375C304.138 85.5469 303.88 85.0911 303.703 84.5703C303.526 84.0443 303.438 83.474 303.438 82.8594ZM305.5 82.6953V82.8594C305.5 83.2292 305.536 83.5755 305.609 83.8984C305.682 84.2214 305.794 84.5052 305.945 84.75C306.096 84.9948 306.292 85.1875 306.531 85.3281C306.776 85.4635 307.068 85.5312 307.406 85.5312C307.74 85.5312 308.026 85.4635 308.266 85.3281C308.505 85.1875 308.701 84.9948 308.852 84.75C309.008 84.5052 309.122 84.2214 309.195 83.8984C309.268 83.5755 309.305 83.2292 309.305 82.8594V82.6953C309.305 82.3307 309.268 81.9896 309.195 81.6719C309.122 81.349 309.008 81.0651 308.852 80.8203C308.701 80.5703 308.503 80.375 308.258 80.2344C308.018 80.0885 307.729 80.0156 307.391 80.0156C307.057 80.0156 306.771 80.0885 306.531 80.2344C306.292 80.375 306.096 80.5703 305.945 80.8203C305.794 81.0651 305.682 81.349 305.609 81.6719C305.536 81.9896 305.5 82.3307 305.5 82.6953ZM314.922 80.2812V87H312.859V78.5469H314.805L314.922 80.2812ZM314.617 82.4688H313.984C313.984 81.8802 314.055 81.3385 314.195 80.8438C314.341 80.349 314.555 79.9193 314.836 79.5547C315.117 79.1849 315.464 78.8984 315.875 78.6953C316.292 78.4922 316.773 78.3906 317.32 78.3906C317.701 78.3906 318.049 78.4479 318.367 78.5625C318.685 78.6719 318.958 78.8464 319.188 79.0859C319.422 79.3203 319.602 79.6276 319.727 80.0078C319.852 80.3828 319.914 80.8333 319.914 81.3594V87H317.852V81.5703C317.852 81.1745 317.794 80.8646 317.68 80.6406C317.57 80.4167 317.411 80.2604 317.203 80.1719C316.995 80.0781 316.745 80.0312 316.453 80.0312C316.13 80.0312 315.852 80.0964 315.617 80.2266C315.388 80.3516 315.198 80.526 315.047 80.75C314.901 80.974 314.792 81.2318 314.719 81.5234C314.651 81.8151 314.617 82.1302 314.617 82.4688ZM319.758 82.0859L318.906 82.2422C318.911 81.7109 318.984 81.2135 319.125 80.75C319.266 80.2812 319.471 79.8724 319.742 79.5234C320.018 79.1693 320.359 78.8932 320.766 78.6953C321.177 78.4922 321.651 78.3906 322.188 78.3906C322.604 78.3906 322.979 78.4505 323.312 78.5703C323.651 78.6849 323.94 78.8698 324.18 79.125C324.419 79.375 324.602 79.7005 324.727 80.1016C324.857 80.5026 324.922 80.9922 324.922 81.5703V87H322.844V81.5625C322.844 81.151 322.786 80.8359 322.672 80.6172C322.562 80.3984 322.404 80.2474 322.195 80.1641C321.987 80.0755 321.742 80.0312 321.461 80.0312C321.174 80.0312 320.924 80.0859 320.711 80.1953C320.503 80.2995 320.326 80.4453 320.18 80.6328C320.039 80.8203 319.932 81.0391 319.859 81.2891C319.792 81.5339 319.758 81.7995 319.758 82.0859ZM331.43 85.2031V81.3047C331.43 81.0182 331.38 80.7708 331.281 80.5625C331.182 80.3542 331.031 80.1927 330.828 80.0781C330.625 79.9635 330.367 79.9062 330.055 79.9062C329.779 79.9062 329.536 79.9531 329.328 80.0469C329.125 80.1406 328.969 80.2734 328.859 80.4453C328.75 80.612 328.695 80.8047 328.695 81.0234H326.625C326.625 80.6745 326.708 80.3438 326.875 80.0312C327.042 79.7135 327.279 79.4323 327.586 79.1875C327.898 78.9375 328.271 78.7422 328.703 78.6016C329.141 78.4609 329.63 78.3906 330.172 78.3906C330.812 78.3906 331.383 78.5 331.883 78.7188C332.388 78.9323 332.784 79.2552 333.07 79.6875C333.362 80.1198 333.508 80.6641 333.508 81.3203V85.0078C333.508 85.4297 333.534 85.7917 333.586 86.0938C333.643 86.3906 333.727 86.6484 333.836 86.8672V87H331.734C331.635 86.7865 331.56 86.5156 331.508 86.1875C331.456 85.8542 331.43 85.526 331.43 85.2031ZM331.719 81.8516L331.734 83.0781H330.43C330.107 83.0781 329.823 83.112 329.578 83.1797C329.333 83.2422 329.133 83.3359 328.977 83.4609C328.82 83.5807 328.703 83.7266 328.625 83.8984C328.547 84.0651 328.508 84.2552 328.508 84.4688C328.508 84.6771 328.555 84.8646 328.648 85.0312C328.747 85.1979 328.888 85.3307 329.07 85.4297C329.258 85.5234 329.477 85.5703 329.727 85.5703C330.091 85.5703 330.409 85.4974 330.68 85.3516C330.951 85.2005 331.161 85.0182 331.312 84.8047C331.464 84.5911 331.544 84.388 331.555 84.1953L332.148 85.0859C332.076 85.2995 331.966 85.526 331.82 85.7656C331.674 86.0052 331.487 86.2292 331.258 86.4375C331.029 86.6458 330.753 86.8177 330.43 86.9531C330.107 87.0885 329.732 87.1562 329.305 87.1562C328.758 87.1562 328.268 87.0469 327.836 86.8281C327.404 86.6094 327.062 86.3099 326.812 85.9297C326.562 85.5495 326.438 85.1172 326.438 84.6328C326.438 84.1849 326.521 83.7891 326.688 83.4453C326.854 83.1016 327.102 82.8125 327.43 82.5781C327.758 82.3385 328.164 82.1589 328.648 82.0391C329.138 81.9141 329.698 81.8516 330.328 81.8516H331.719ZM337.555 75V87H335.484V75H337.555ZM342 86.0625L344.266 78.5469H346.477L343.086 88.2812C343.008 88.4896 342.906 88.7161 342.781 88.9609C342.661 89.2057 342.5 89.4375 342.297 89.6562C342.094 89.8802 341.839 90.0625 341.531 90.2031C341.229 90.3438 340.862 90.4141 340.43 90.4141C340.242 90.4141 340.076 90.401 339.93 90.375C339.784 90.349 339.63 90.3151 339.469 90.2734V88.7266C339.521 88.7318 339.581 88.7344 339.648 88.7344C339.721 88.7396 339.784 88.7422 339.836 88.7422C340.138 88.7422 340.388 88.7057 340.586 88.6328C340.784 88.5651 340.943 88.4531 341.062 88.2969C341.188 88.1458 341.292 87.9479 341.375 87.7031L342 86.0625ZM340.883 78.5469L342.797 84.7734L343.133 86.9531L341.711 87.2109L338.656 78.5469H340.883Z" fill="white"/>
<path d="M176.5 82.5H272.5" stroke="url(#paint3_linear_3964_104353)" stroke-linecap="round" stroke-linejoin="round" stroke-dasharray="2 2"/>
<defs>
<filter id="filter0_d_3964_104353" x="70.6" y="0.599998" width="164.8" height="164.8" filterUnits="userSpaceOnUse" color-interpolation-filters="sRGB">
<feFlood flood-opacity="0" result="BackgroundImageFix"/>
<feColorMatrix in="SourceAlpha" type="matrix" values="0 0 0 0 0 0 0 0 0 0 0 0 0 0 0 0 0 0 127 0" result="hardAlpha"/>
<feOffset/>
<feGaussianBlur stdDeviation="29.7"/>
<feComposite in2="hardAlpha" operator="out"/>
<feColorMatrix type="matrix" values="0 0 0 0 1 0 0 0 0 0 0 0 0 0 0 0 0 0 1 0"/>
<feBlend mode="normal" in2="BackgroundImageFix" result="effect1_dropShadow_3964_104353"/>
<feBlend mode="normal" in="SourceGraphic" in2="effect1_dropShadow_3964_104353" result="shape"/>
</filter>
<linearGradient id="paint0_linear_3964_104353" x1="211.5" y1="87" x2="211.5" y2="281" gradientUnits="userSpaceOnUse">
<stop stop-color="#F61C20"/>
<stop offset="0.490385" stop-color="#6C48A4"/>
<stop offset="1" stop-color="#A0D1F9"/>
</linearGradient>
<linearGradient id="paint1_linear_3964_104353" x1="360" y1="80.5" x2="273" y2="82" gradientUnits="userSpaceOnUse">
<stop stop-color="#50011A"/>
<stop offset="1" stop-color="#93123B"/>
</linearGradient>
<linearGradient id="paint2_linear_3964_104353" x1="273" y1="82" x2="357" y2="82" gradientUnits="userSpaceOnUse">
<stop stop-color="#A12525"/>
<stop offset="1" stop-color="#3B0E0E"/>
</linearGradient>
<linearGradient id="paint3_linear_3964_104353" x1="224.5" y1="82.5" x2="224.5" y2="83.5" gradientUnits="userSpaceOnUse">
<stop stop-color="#F61C20"/>
<stop offset="0.490385" stop-color="#6C48A4"/>
<stop offset="1" stop-color="#A0D1F9"/>
</linearGradient>
</defs>
</svg>
