<svg width="440" height="93" viewBox="0 0 440 93" fill="none" xmlns="http://www.w3.org/2000/svg">
<path d="M269.124 13.1123C269.952 13.1124 270.624 13.7839 270.624 14.6123V41.4023C270.624 42.2307 269.952 42.9022 269.124 42.9023C268.296 42.9023 267.624 42.2308 267.624 41.4023V14.6123C267.624 13.7839 268.296 13.1123 269.124 13.1123ZM283.736 13.1123C284.565 13.1124 285.236 13.7839 285.236 14.6123V41.4023C285.236 42.2307 284.565 42.9023 283.736 42.9023C282.908 42.9023 282.236 42.2308 282.236 41.4023V14.6123C282.236 13.7839 282.908 13.1123 283.736 13.1123ZM298.35 13.1123C299.178 13.1123 299.85 13.7839 299.85 14.6123V41.4023C299.85 42.2307 299.178 42.9023 298.35 42.9023C297.521 42.9023 296.85 42.2308 296.85 41.4023V14.6123C296.85 13.7839 297.521 13.1123 298.35 13.1123ZM312.961 13.1123C313.789 13.1123 314.461 13.7839 314.461 14.6123V41.4023C314.461 42.2307 313.789 42.9023 312.961 42.9023C312.133 42.9023 311.461 42.2308 311.461 41.4023V14.6123C311.461 13.7839 312.133 13.1123 312.961 13.1123ZM327.574 13.1123C328.403 13.1123 329.074 13.7839 329.074 14.6123V41.4023C329.074 42.2308 328.403 42.9023 327.574 42.9023C326.746 42.9023 326.074 42.2307 326.074 41.4023V14.6123C326.074 13.7839 326.746 13.1123 327.574 13.1123ZM364.107 14.3301C364.936 14.3302 365.607 15.0019 365.607 15.8301V41.4023C365.607 42.2307 364.936 42.9022 364.107 42.9023C363.279 42.9023 362.607 42.2308 362.607 41.4023V15.8301C362.608 15.0018 363.279 14.3301 364.107 14.3301ZM371.414 14.3301C372.242 14.3301 372.914 15.0018 372.914 15.8301V41.4023C372.914 42.2308 372.242 42.9023 371.414 42.9023C370.586 42.9021 369.914 42.2306 369.914 41.4023V15.8301C369.914 15.002 370.586 14.3303 371.414 14.3301ZM386.025 14.3301C386.854 14.3301 387.525 15.0018 387.525 15.8301V41.4023C387.525 42.2308 386.854 42.9023 386.025 42.9023C385.197 42.9021 384.525 42.2306 384.525 41.4023V15.8301C384.526 15.002 385.197 14.3303 386.025 14.3301ZM254.51 14.3301C255.338 14.3303 256.01 15.002 256.01 15.8301V40.1846C256.01 41.0129 255.338 41.6844 254.51 41.6846C253.681 41.6846 253.01 41.013 253.01 40.1846V15.8301C253.01 15.0018 253.681 14.3301 254.51 14.3301ZM349.495 14.3301C350.323 14.3302 350.995 15.0019 350.995 15.8301V40.1846C350.995 41.0129 350.323 41.6844 349.495 41.6846C348.667 41.6846 347.995 41.013 347.995 40.1846V15.8301C347.995 15.0018 348.667 14.3301 349.495 14.3301ZM261.816 17.9844C262.645 17.9844 263.316 18.6559 263.316 19.4844V38.9688C263.316 39.7969 262.645 40.4688 261.816 40.4688C260.988 40.4686 260.317 39.7968 260.316 38.9688V19.4844C260.316 18.656 260.988 17.9845 261.816 17.9844ZM247.204 17.9844C248.033 17.9844 248.704 18.6559 248.704 19.4844V37.751C248.704 38.5791 248.032 39.251 247.204 39.251C246.376 39.2509 245.704 38.579 245.704 37.751V19.4844C245.704 18.656 246.376 17.9845 247.204 17.9844ZM393.333 16.7666C394.161 16.7666 394.833 17.4383 394.833 18.2666V37.751C394.833 38.5792 394.161 39.251 393.333 39.251C392.505 39.251 391.833 38.5792 391.833 37.751V18.2666C391.833 17.4383 392.505 16.7666 393.333 16.7666ZM276.429 17.9844C277.257 17.9844 277.929 18.6559 277.929 19.4844V36.5332C277.928 37.3613 277.257 38.0332 276.429 38.0332C275.601 38.0331 274.929 37.3612 274.929 36.5332V19.4844C274.929 18.656 275.6 17.9845 276.429 17.9844ZM291.043 17.9844C291.871 17.9844 292.543 18.6559 292.543 19.4844V36.5332C292.543 37.3613 291.871 38.0332 291.043 38.0332C290.215 38.033 289.543 37.3612 289.543 36.5332V19.4844C289.543 18.6561 290.215 17.9846 291.043 17.9844ZM305.655 17.9844C306.484 17.9844 307.155 18.6559 307.155 19.4844V36.5332C307.155 37.3613 306.483 38.0332 305.655 38.0332C304.827 38.0329 304.156 37.3612 304.155 36.5332V19.4844C304.155 18.6561 304.827 17.9846 305.655 17.9844ZM320.269 17.9844C321.097 17.9846 321.769 18.6561 321.769 19.4844V36.5332C321.768 37.3612 321.097 38.033 320.269 38.0332C319.44 38.0332 318.769 37.3613 318.769 36.5332V19.4844C318.769 18.6559 319.44 17.9844 320.269 17.9844ZM356.801 20.4199C357.629 20.4199 358.301 21.0915 358.301 21.9199V36.5332C358.3 37.3613 357.629 38.0332 356.801 38.0332C355.973 38.0331 355.301 37.3612 355.301 36.5332V21.9199C355.301 21.0916 355.972 20.4201 356.801 20.4199ZM407.945 20.4199C408.774 20.4199 409.445 21.0915 409.445 21.9199V36.5332C409.445 37.3613 408.773 38.0332 407.945 38.0332C407.117 38.0332 406.446 37.3613 406.445 36.5332V21.9199C406.445 21.0915 407.117 20.4199 407.945 20.4199ZM334.882 24.0732C335.71 24.0734 336.382 24.7449 336.382 25.5732V34.0977C336.382 34.9258 335.71 35.5975 334.882 35.5977C334.054 35.5977 333.382 34.9259 333.382 34.0977V25.5732C333.382 24.7448 334.053 24.0732 334.882 24.0732ZM239.897 22.8545C240.726 22.8547 241.397 23.5264 241.397 24.3545V31.6611C241.397 32.4893 240.726 33.1609 239.897 33.1611C239.069 33.1611 238.398 32.4895 238.397 31.6611V24.3545C238.398 23.5262 239.069 22.8545 239.897 22.8545ZM378.722 25.29C379.55 25.29 380.222 25.9617 380.222 26.79V31.6611C380.222 32.4895 379.55 33.1611 378.722 33.1611C377.893 33.1611 377.222 32.4895 377.222 31.6611V26.79C377.222 25.9617 377.893 25.29 378.722 25.29ZM225.285 24.0732C226.113 24.0735 226.785 24.745 226.785 25.5732V30.4443C226.785 31.2725 226.113 31.9441 225.285 31.9443C224.457 31.9443 223.785 31.2727 223.785 30.4443V25.5732C223.785 24.7448 224.457 24.0732 225.285 24.0732ZM342.188 25.29C343.016 25.29 343.687 25.9617 343.688 26.79V30.4434C343.687 31.2717 343.016 31.9434 342.188 31.9434C341.359 31.9433 340.688 31.2717 340.688 30.4434V26.79C340.688 25.9618 341.359 25.2901 342.188 25.29ZM415.253 25.29C416.081 25.2902 416.753 25.9619 416.753 26.79V30.4434C416.753 31.2716 416.081 31.9432 415.253 31.9434C414.425 31.9434 413.753 31.2717 413.753 30.4434V26.79C413.753 25.9617 414.425 25.29 415.253 25.29ZM232.591 25.29C233.419 25.29 234.091 25.9617 234.091 26.79V29.2256C234.091 30.054 233.419 30.7256 232.591 30.7256C231.762 30.7256 231.091 30.054 231.091 29.2256V26.79C231.091 25.9617 231.762 25.2901 232.591 25.29ZM400.641 25.29C401.469 25.2903 402.14 25.9619 402.141 26.79V29.2256C402.141 30.0538 401.469 30.7254 400.641 30.7256C399.812 30.7256 399.141 30.054 399.141 29.2256V26.79C399.141 25.9617 399.812 25.29 400.641 25.29Z" fill="url(#paint0_linear_3931_110251)"/>
<path d="M72.457 13.1123C73.2854 13.1124 73.957 13.7839 73.957 14.6123V41.4023C73.957 42.2307 73.2854 42.9022 72.457 42.9023C71.6286 42.9023 70.957 42.2308 70.957 41.4023V14.6123C70.957 13.7839 71.6286 13.1123 72.457 13.1123ZM87.0693 13.1123C87.8977 13.1124 88.5693 13.7839 88.5693 14.6123V41.4023C88.5693 42.2307 87.8977 42.9023 87.0693 42.9023C86.2409 42.9023 85.5693 42.2308 85.5693 41.4023V14.6123C85.5693 13.7839 86.2409 13.1123 87.0693 13.1123ZM101.684 13.1123C102.512 13.1123 103.184 13.7839 103.184 14.6123V41.4023C103.184 42.2308 102.512 42.9023 101.684 42.9023C100.855 42.9023 100.184 42.2308 100.184 41.4023V14.6123C100.184 13.7839 100.855 13.1123 101.684 13.1123ZM116.296 13.1123C117.124 13.1123 117.796 13.7839 117.796 14.6123V41.4023C117.796 42.2308 117.124 42.9023 116.296 42.9023C115.468 42.9023 114.796 42.2307 114.796 41.4023V14.6123C114.796 13.7839 115.467 13.1123 116.296 13.1123ZM130.908 13.1123C131.737 13.1123 132.408 13.7839 132.408 14.6123V41.4023C132.408 42.2308 131.737 42.9023 130.908 42.9023C130.08 42.9023 129.408 42.2307 129.408 41.4023V14.6123C129.408 13.7839 130.08 13.1124 130.908 13.1123ZM167.441 14.3301C168.27 14.3302 168.941 15.0019 168.941 15.8301V41.4023C168.941 42.2307 168.27 42.9023 167.441 42.9023C166.613 42.9023 165.941 42.2308 165.941 41.4023V15.8301C165.942 15.0018 166.613 14.3301 167.441 14.3301ZM174.747 14.3301C175.575 14.3301 176.247 15.0018 176.247 15.8301V41.4023C176.247 42.2308 175.576 42.9023 174.747 42.9023C173.919 42.9021 173.247 42.2306 173.247 41.4023V15.8301C173.247 15.002 173.919 14.3303 174.747 14.3301ZM189.361 14.3301C190.189 14.3303 190.861 15.002 190.861 15.8301V41.4023C190.861 42.2306 190.19 42.9021 189.361 42.9023C188.533 42.9023 187.861 42.2308 187.861 41.4023V15.8301C187.862 15.0018 188.533 14.3301 189.361 14.3301ZM57.8447 14.3301C58.6729 14.3302 59.3445 15.0019 59.3447 15.8301V40.1846C59.3447 41.0129 58.673 41.6844 57.8447 41.6846C57.0163 41.6846 56.3447 41.013 56.3447 40.1846V15.8301C56.345 15.0018 57.0164 14.3301 57.8447 14.3301ZM152.828 14.3301C153.656 14.3302 154.328 15.0019 154.328 15.8301V40.1846C154.328 41.0129 153.656 41.6844 152.828 41.6846C152 41.6846 151.328 41.013 151.328 40.1846V15.8301C151.328 15.0018 152 14.3301 152.828 14.3301ZM65.1504 17.9844C65.9788 17.9844 66.6504 18.6559 66.6504 19.4844V38.9688C66.65 39.7969 65.9786 40.4688 65.1504 40.4688C64.3223 40.4686 63.6508 39.7968 63.6504 38.9688V19.4844C63.6504 18.656 64.3221 17.9845 65.1504 17.9844ZM50.5381 17.9844C51.3665 17.9844 52.0381 18.6559 52.0381 19.4844V37.751C52.0377 38.5791 51.3663 39.251 50.5381 39.251C49.71 39.2509 49.0385 38.579 49.0381 37.751V19.4844C49.0381 18.656 49.7098 17.9845 50.5381 17.9844ZM196.667 16.7666C197.495 16.7666 198.167 17.4383 198.167 18.2666V37.751C198.167 38.5792 197.495 39.251 196.667 39.251C195.839 39.251 195.167 38.5792 195.167 37.751V18.2666C195.167 17.4383 195.839 16.7666 196.667 16.7666ZM79.7627 17.9844C80.5911 17.9844 81.2627 18.6559 81.2627 19.4844V36.5332C81.2623 37.3613 80.5909 38.0332 79.7627 38.0332C78.9346 38.033 78.2631 37.3612 78.2627 36.5332V19.4844C78.2627 18.656 78.9344 17.9845 79.7627 17.9844ZM94.376 17.9844C95.2044 17.9844 95.876 18.6559 95.876 19.4844V36.5332C95.8756 37.3613 95.2042 38.0332 94.376 38.0332C93.548 38.033 92.8763 37.3612 92.876 36.5332V19.4844C92.876 18.6561 93.5477 17.9846 94.376 17.9844ZM108.988 17.9844C109.817 17.9844 110.488 18.6559 110.488 19.4844V36.5332C110.488 37.3613 109.816 38.0332 108.988 38.0332C108.16 38.033 107.489 37.3612 107.488 36.5332V19.4844C107.488 18.6561 108.16 17.9846 108.988 17.9844ZM123.604 17.9844C124.432 17.9846 125.104 18.6561 125.104 19.4844V36.5332C125.103 37.3612 124.432 38.033 123.604 38.0332C122.775 38.0332 122.104 37.3613 122.104 36.5332V19.4844C122.104 18.6559 122.775 17.9844 123.604 17.9844ZM160.134 20.4199C160.962 20.4199 161.634 21.0915 161.634 21.9199V36.5332C161.633 37.3613 160.962 38.0332 160.134 38.0332C159.306 38.0331 158.634 37.3612 158.634 36.5332V21.9199C158.634 21.0916 159.305 20.4201 160.134 20.4199ZM211.28 20.4199C212.109 20.4199 212.78 21.0915 212.78 21.9199V36.5332C212.78 37.3613 212.108 38.0332 211.28 38.0332C210.452 38.0331 209.781 37.3612 209.78 36.5332V21.9199C209.78 21.0915 210.452 20.42 211.28 20.4199ZM138.216 24.0732C139.044 24.0734 139.716 24.7449 139.716 25.5732V34.0977C139.716 34.9258 139.044 35.5975 138.216 35.5977C137.388 35.5977 136.716 34.9259 136.716 34.0977V25.5732C136.716 24.7448 137.387 24.0732 138.216 24.0732ZM43.2314 22.8545C44.0596 22.8547 44.7312 23.5264 44.7314 24.3545V31.6611C44.7314 32.4894 44.0596 33.1609 43.2314 33.1611C42.4031 33.1611 41.7315 32.4895 41.7314 31.6611V24.3545C41.7317 23.5262 42.4032 22.8545 43.2314 22.8545ZM182.054 25.29C182.882 25.2901 183.554 25.9618 183.554 26.79V31.6611C183.554 32.4895 182.882 33.1611 182.054 33.1611C181.225 33.1611 180.554 32.4895 180.554 31.6611V26.79C180.554 25.9617 181.225 25.29 182.054 25.29ZM28.6182 24.0732C29.4464 24.0735 30.1182 24.745 30.1182 25.5732V30.4443C30.118 31.2725 29.4463 31.9441 28.6182 31.9443C27.7898 31.9443 27.1183 31.2727 27.1182 30.4443V25.5732C27.1182 24.7448 27.7897 24.0732 28.6182 24.0732ZM145.521 25.29C146.35 25.29 147.021 25.9617 147.021 26.79V30.4434C147.021 31.2717 146.35 31.9434 145.521 31.9434C144.693 31.9432 144.022 31.2717 144.021 30.4434V26.79C144.022 25.9618 144.693 25.2902 145.521 25.29ZM218.587 25.29C219.415 25.2902 220.087 25.9618 220.087 26.79V30.4434C220.087 31.2716 219.415 31.9432 218.587 31.9434C217.759 31.9434 217.087 31.2717 217.087 30.4434V26.79C217.087 25.9617 217.759 25.29 218.587 25.29ZM35.9248 25.29C36.7531 25.29 37.4247 25.9617 37.4248 26.79V29.2256C37.4248 30.054 36.7532 30.7256 35.9248 30.7256C35.0964 30.7255 34.4248 30.054 34.4248 29.2256V26.79C34.4249 25.9618 35.0965 25.2901 35.9248 25.29ZM203.975 25.29C204.803 25.2902 205.474 25.9619 205.475 26.79V29.2256C205.475 30.0539 204.803 30.7254 203.975 30.7256C203.146 30.7256 202.475 30.054 202.475 29.2256V26.79C202.475 25.9617 203.146 25.29 203.975 25.29Z" fill="url(#paint1_linear_3931_110251)"/>
<path fill-rule="evenodd" clip-rule="evenodd" d="M118.122 84.3921C112.742 84.3921 108.38 80.0307 108.38 74.6502C108.38 69.2697 112.742 64.9082 118.122 64.9082C123.503 64.9082 127.864 69.2697 127.864 74.6502C127.864 80.0307 123.503 84.3921 118.122 84.3921ZM119.584 79.5124C119.584 78.6678 118.942 78.0599 118.131 78.0599C117.303 78.0599 116.661 78.6678 116.661 79.5124C116.661 80.357 117.303 80.9824 118.131 80.9824C118.942 80.9824 119.584 80.357 119.584 79.5124ZM118.929 68.805C118.995 68.8051 119.06 68.8184 119.12 68.8443C119.181 68.8702 119.235 68.908 119.281 68.9555C119.326 69.003 119.361 69.0592 119.384 69.1208C119.408 69.1823 119.418 69.2479 119.415 69.3135L119.117 76.1329C119.111 76.2583 119.058 76.3768 118.967 76.4635C118.876 76.5503 118.755 76.5987 118.63 76.5986H117.614C117.488 76.5987 117.367 76.5503 117.277 76.4635C117.186 76.3768 117.132 76.2583 117.127 76.1329L116.83 69.3135C116.827 69.2478 116.837 69.1821 116.86 69.1205C116.883 69.0589 116.919 69.0027 116.964 68.9551C117.01 68.9076 117.065 68.8698 117.125 68.844C117.186 68.8182 117.251 68.8049 117.317 68.805H118.929Z" fill="#BD2020"/>
<path d="M116.905 39.9463V56.3859" stroke="#A9A8B2"/>
<path fill-rule="evenodd" clip-rule="evenodd" d="M328.79 84.392C323.41 84.392 319.048 80.0306 319.048 74.6501C319.048 69.2697 323.41 64.9082 328.79 64.9082C334.171 64.9082 338.532 69.2697 338.532 74.6501C338.532 80.0306 334.171 84.392 328.79 84.392ZM330.252 79.5123C330.252 78.6677 329.61 78.0598 328.799 78.0598C327.971 78.0598 327.329 78.6677 327.329 79.5123C327.329 80.3569 327.971 80.9823 328.799 80.9823C329.61 80.9823 330.252 80.3569 330.252 79.5123ZM329.597 68.805C329.663 68.805 329.728 68.8184 329.788 68.8443C329.848 68.8701 329.903 68.908 329.948 68.9555C329.994 69.003 330.029 69.0592 330.052 69.1207C330.075 69.1823 330.086 69.2478 330.083 69.3135L329.785 76.1328C329.779 76.2583 329.726 76.3767 329.635 76.4635C329.544 76.5502 329.423 76.5986 329.298 76.5985H328.282C328.156 76.5986 328.035 76.5502 327.945 76.4635C327.854 76.3767 327.8 76.2583 327.795 76.1328L327.497 69.3135C327.495 69.2477 327.505 69.1821 327.528 69.1205C327.551 69.0589 327.587 69.0026 327.632 68.9551C327.678 68.9076 327.733 68.8698 327.793 68.844C327.854 68.8182 327.919 68.8049 327.985 68.805H329.597Z" fill="#BD2020"/>
<path d="M327.574 39.9463V56.3857" stroke="#A9A8B2"/>
<path d="M184.056 70.8486H186.142V76.0633H184.056V70.8486ZM184.055 77.1062H186.141V79.1921H184.055V77.1062Z" fill="#FE9F43"/>
<path d="M186.941 64.799C186.578 64.1159 185.871 63.6914 185.097 63.6914C184.323 63.6914 183.616 64.1159 183.253 64.8L175.6 79.2582C175.43 79.5757 175.346 79.932 175.356 80.2919C175.366 80.6519 175.47 81.003 175.657 81.3107C175.841 81.6198 176.103 81.8755 176.416 82.0525C176.729 82.2296 177.083 82.3219 177.443 82.3203H192.751C193.489 82.3203 194.158 81.9427 194.538 81.3107C194.725 81.0029 194.829 80.6518 194.838 80.2919C194.848 79.932 194.764 79.5758 194.595 79.2582L186.941 64.799ZM177.443 80.2344L185.097 65.7762L192.756 80.2344H177.443Z" fill="#FE9F43"/>
<path d="M185.098 39.9463V56.386" stroke="#A9A8B2"/>
<defs>
<linearGradient id="paint0_linear_3931_110251" x1="425.351" y1="44.7481" x2="171.354" y2="-57.9367" gradientUnits="userSpaceOnUse">
<stop stop-color="#DF4839"/>
<stop offset="1" stop-color="#5A0387"/>
</linearGradient>
<linearGradient id="paint1_linear_3931_110251" x1="228.685" y1="44.7481" x2="-25.3134" y2="-57.9376" gradientUnits="userSpaceOnUse">
<stop stop-color="#DF4839"/>
<stop offset="1" stop-color="#5A0387"/>
</linearGradient>
</defs>
</svg>
