<svg width="188" height="81" viewBox="0 0 188 81" fill="none" xmlns="http://www.w3.org/2000/svg">
<g opacity="0.6">
<mask id="path-1-inside-1_3016_69685" fill="white">
<path d="M182.7 18C185.627 18.0001 188 20.3728 188 23.2998C188 26.2268 185.627 28.5995 182.7 28.5996H125.767C124.791 28.5996 124 29.3908 124 30.3667C124 31.3426 124.791 32.1338 125.767 32.1338H182.7C185.627 32.1339 188 34.5065 188 37.4336C188 40.3605 185.627 42.7333 182.7 42.7334H132.267C127.701 42.7334 124 46.4345 124 51C124 62.0457 115.046 71 104 71H91C90.753 71 90.5071 70.9953 90.2623 70.9863C89.7422 70.967 89.2207 71 88.7002 71H5.2998C2.37283 70.9999 7.06094e-05 68.6272 0 65.7002C0 62.7732 2.37279 60.4005 5.2998 60.4004H70.6885C71.8911 60.4004 72.6762 59.1149 72.2558 57.9882C72.0111 57.3324 71.397 56.8662 70.6971 56.8662H5.2998C2.37279 56.8661 0 54.4935 0 51.5664C0.0001407 48.6395 2.37287 46.2667 5.2998 46.2666H69.2334C70.2091 46.2666 71 45.4757 71 44.5C71 43.5243 70.2091 42.7334 69.2334 42.7334H50.2998C47.3729 42.7333 45.0001 40.3605 45 37.4336C45 34.5065 47.3728 32.1339 50.2998 32.1338H69.2329C70.2088 32.1338 71 31.3426 71 30.3667C71 29.3908 70.2088 28.5996 69.2329 28.5996H50.2998C47.3728 28.5995 45 26.2268 45 23.2998C45.0001 20.3729 47.3729 18.0001 50.2998 18H182.7Z"/>
</mask>
<path d="M182.7 18C185.627 18.0001 188 20.3728 188 23.2998C188 26.2268 185.627 28.5995 182.7 28.5996H125.767C124.791 28.5996 124 29.3908 124 30.3667C124 31.3426 124.791 32.1338 125.767 32.1338H182.7C185.627 32.1339 188 34.5065 188 37.4336C188 40.3605 185.627 42.7333 182.7 42.7334H132.267C127.701 42.7334 124 46.4345 124 51C124 62.0457 115.046 71 104 71H91C90.753 71 90.5071 70.9953 90.2623 70.9863C89.7422 70.967 89.2207 71 88.7002 71H5.2998C2.37283 70.9999 7.06094e-05 68.6272 0 65.7002C0 62.7732 2.37279 60.4005 5.2998 60.4004H70.6885C71.8911 60.4004 72.6762 59.1149 72.2558 57.9882C72.0111 57.3324 71.397 56.8662 70.6971 56.8662H5.2998C2.37279 56.8661 0 54.4935 0 51.5664C0.0001407 48.6395 2.37287 46.2667 5.2998 46.2666H69.2334C70.2091 46.2666 71 45.4757 71 44.5C71 43.5243 70.2091 42.7334 69.2334 42.7334H50.2998C47.3729 42.7333 45.0001 40.3605 45 37.4336C45 34.5065 47.3728 32.1339 50.2998 32.1338H69.2329C70.2088 32.1338 71 31.3426 71 30.3667C71 29.3908 70.2088 28.5996 69.2329 28.5996H50.2998C47.3728 28.5995 45 26.2268 45 23.2998C45.0001 20.3729 47.3729 18.0001 50.2998 18H182.7Z" fill="#E1F1FF"/>
<path d="M182.7 18L182.7 17H182.7V18ZM188 23.2998H189V23.2998L188 23.2998ZM182.7 28.5996V29.5996H182.7L182.7 28.5996ZM182.7 32.1338L182.7 31.1338H182.7V32.1338ZM188 37.4336L189 37.4336V37.4336H188ZM182.7 42.7334V43.7334H182.7L182.7 42.7334ZM104 71V72V71ZM91 71V72V71ZM5.2998 71L5.29977 72H5.2998V71ZM0 65.7002H-1V65.7002L0 65.7002ZM5.2998 60.4004V59.4004H5.29977L5.2998 60.4004ZM5.2998 56.8662L5.29977 57.8662H5.2998V56.8662ZM0 51.5664L-1 51.5664V51.5664H0ZM5.2998 46.2666V45.2666H5.29977L5.2998 46.2666ZM50.2998 42.7334L50.2998 43.7334H50.2998V42.7334ZM45 37.4336H44V37.4336L45 37.4336ZM50.2998 32.1338V31.1338H50.2998L50.2998 32.1338ZM50.2998 28.5996L50.2998 29.5996H50.2998V28.5996ZM45 23.2998L44 23.2998V23.2998H45ZM50.2998 18V17H50.2998L50.2998 18ZM90.2623 70.9863L90.2993 69.987L90.2623 70.9863ZM182.7 18L182.7 19C185.075 19.0001 187 20.9251 187 23.2998L188 23.2998L189 23.2998C189 19.8206 186.179 17.0001 182.7 17L182.7 18ZM188 23.2998H187C187 25.6745 185.075 27.5995 182.7 27.5996L182.7 28.5996L182.7 29.5996C186.179 29.5995 189 26.7792 189 23.2998H188ZM182.7 28.5996V27.5996H125.767V28.5996V29.5996H182.7V28.5996ZM125.767 32.1338V33.1338H182.7V32.1338V31.1338H125.767V32.1338ZM182.7 32.1338L182.7 33.1338C185.075 33.1339 187 35.0589 187 37.4336H188H189C189 33.9542 186.179 31.1339 182.7 31.1338L182.7 32.1338ZM188 37.4336L187 37.4335C187 39.8082 185.075 41.7333 182.7 41.7334L182.7 42.7334L182.7 43.7334C186.179 43.7333 189 40.9128 189 37.4336L188 37.4336ZM182.7 42.7334V41.7334H132.267V42.7334V43.7334H182.7V42.7334ZM124 51H123C123 61.4934 114.493 70 104 70V71V72C115.598 72 125 62.598 125 51H124ZM104 71V70H91V71V72H104V71ZM91 71V70C90.7656 70 90.532 69.9956 90.2993 69.987L90.2623 70.9863L90.2253 71.9856C90.4822 71.9951 90.7405 72 91 72V71ZM88.7002 71V70H5.2998V71V72H88.7002V71ZM5.2998 71L5.29984 70C2.92511 69.9999 1.00006 68.0749 1 65.7002L0 65.7002L-1 65.7002C-0.999916 69.1795 1.82055 71.9999 5.29977 72L5.2998 71ZM0 65.7002H1C1 63.3255 2.92504 61.4005 5.29984 61.4004L5.2998 60.4004L5.29977 59.4004C1.82053 59.4005 -1 62.2208 -1 65.7002H0ZM5.2998 60.4004V61.4004H70.6885V60.4004V59.4004H5.2998V60.4004ZM70.6971 56.8662V55.8662H5.2998V56.8662V57.8662H70.6971V56.8662ZM5.2998 56.8662L5.29984 55.8662C2.92504 55.8661 1 53.9411 1 51.5664H0H-1C-1 55.0458 1.82053 57.8661 5.29977 57.8662L5.2998 56.8662ZM0 51.5664L1 51.5665C1.00011 49.1918 2.92518 47.2667 5.29984 47.2666L5.2998 46.2666L5.29977 45.2666C1.82057 45.2667 -0.999833 48.0872 -1 51.5664L0 51.5664ZM5.2998 46.2666V47.2666H69.2334V46.2666V45.2666H5.2998V46.2666ZM69.2334 42.7334V41.7334H50.2998V42.7334V43.7334H69.2334V42.7334ZM50.2998 42.7334L50.2998 41.7334C47.9252 41.7333 46.0001 39.8082 46 37.4335L45 37.4336L44 37.4336C44.0002 40.9128 46.8206 43.7333 50.2998 43.7334L50.2998 42.7334ZM45 37.4336H46C46 35.0589 47.925 33.1339 50.2998 33.1338L50.2998 32.1338L50.2998 31.1338C46.8205 31.1339 44 33.9542 44 37.4336H45ZM50.2998 32.1338V33.1338H69.2329V32.1338V31.1338H50.2998V32.1338ZM69.2329 28.5996V27.5996H50.2998V28.5996V29.5996H69.2329V28.5996ZM50.2998 28.5996L50.2998 27.5996C47.925 27.5995 46 25.6745 46 23.2998H45H44C44 26.7792 46.8205 29.5995 50.2998 29.5996L50.2998 28.5996ZM45 23.2998L46 23.2998C46.0001 20.9251 47.9251 19.0001 50.2998 19L50.2998 18L50.2998 17C46.8206 17.0001 44.0001 19.8206 44 23.2998L45 23.2998ZM50.2998 18V19H182.7V18V17H50.2998V18ZM69.2329 32.1338V33.1338C70.7611 33.1338 72 31.8949 72 30.3667H71H70C70 30.7904 69.6566 31.1338 69.2329 31.1338V32.1338ZM69.2334 46.2666V47.2666C70.7613 47.2666 72 46.028 72 44.5H71H70C70 44.9234 69.6568 45.2666 69.2334 45.2666V46.2666ZM72.2558 57.9882L73.1927 57.6387C72.8162 56.6294 71.8533 55.8662 70.6971 55.8662V56.8662V57.8662C70.9408 57.8662 71.2061 58.0354 71.3189 58.3378L72.2558 57.9882ZM71 30.3667H72C72 28.8385 70.7611 27.5996 69.2329 27.5996V28.5996V29.5996C69.6566 29.5996 70 29.943 70 30.3667H71ZM70.6885 60.4004V61.4004C72.6814 61.4004 73.8236 59.3295 73.1927 57.6387L72.2558 57.9882L71.3189 58.3378C71.4123 58.5882 71.3742 58.8646 71.2371 59.0801C71.1039 59.2894 70.9076 59.4004 70.6885 59.4004V60.4004ZM71 44.5H72C72 42.972 70.7614 41.7334 69.2334 41.7334V42.7334V43.7334C69.6568 43.7334 70 44.0766 70 44.5H71ZM90.2623 70.9863L90.2993 69.987C89.7725 69.9675 89.1184 70 88.7002 70L88.7002 71L88.7002 72C89.323 72 89.7119 71.9666 90.2253 71.9856L90.2623 70.9863ZM124 30.3667H123C123 31.8949 124.239 33.1338 125.767 33.1338V32.1338V31.1338C125.343 31.1338 125 30.7904 125 30.3667H124ZM132.267 42.7334V41.7334C127.149 41.7334 123 45.8822 123 51H124H125C125 46.9868 128.253 43.7334 132.267 43.7334V42.7334ZM125.767 28.5996V27.5996C124.239 27.5996 123 28.8385 123 30.3667H124H125C125 29.943 125.343 29.5996 125.767 29.5996V28.5996Z" fill="#E1E1FF" fill-opacity="0.6" mask="url(#path-1-inside-1_3016_69685)"/>
</g>
<path d="M75 32.0432V40.3735H125V32.0432H75ZM105.208 37.2484H80.2084V35.1651H105.208V37.2484H105.208ZM112.5 37.2484H110.417V35.1651H112.5V37.2484ZM116.667 37.2484H114.583V35.1651H116.667V37.2484ZM120.833 37.2484H118.75V35.1651H120.833V37.2484Z" fill="#3C77EF"/>
<path d="M97.5406 60.1652L93.7838 57.0402H85.417V74.9488L89.5551 63.2902H111.459V60.1652H97.5406Z" fill="#211F54"/>
<path d="M75 42.4568V70.585H83.3333V54.9568H94.5364L98.2931 58.0818H113.542V63.2901H118.128L115.679 70.585H125V42.4568H75Z" fill="#3C77EF" fill-opacity="0.2"/>
<path d="M91.0254 65.3734L85.8496 79.9567H110.334L115.231 65.3734H91.0254ZM99.9996 77.8734H97.9163V75.7901H99.9996V77.8734ZM104.166 77.8734H102.083V75.7901H104.166V77.8734ZM108.333 77.8734H106.25V75.7901H108.333V77.8734Z" fill="#3C77EF"/>
<circle opacity="0.6" cx="40.5" cy="15.5" r="3" stroke="#E1E1FF" stroke-opacity="0.6"/>
<g opacity="0.6">
<circle cx="148.5" cy="3.5" r="3.5" fill="#EAECEE"/>
<circle cx="148.5" cy="3.5" r="3" stroke="#E1E1FF" stroke-opacity="0.6"/>
</g>
</svg>
