<svg width="36" height="36" viewBox="0 0 36 36" fill="none" xmlns="http://www.w3.org/2000/svg">
<path fill-rule="evenodd" clip-rule="evenodd" d="M3.6 1.8C3.6 1.32261 3.41036 0.864773 3.07279 0.527208C2.73523 0.189642 2.27739 0 1.8 0C1.32261 0 0.864773 0.189642 0.527208 0.527208C0.189642 0.864773 0 1.32261 0 1.8V32.76C0 33.6193 0.341356 34.4434 0.948974 35.051C1.55659 35.6586 2.3807 36 3.24 36H34.2C34.6774 36 35.1352 35.8104 35.4728 35.4728C35.8104 35.1352 36 34.6774 36 34.2C36 33.7226 35.8104 33.2648 35.4728 32.9272C35.1352 32.5896 34.6774 32.4 34.2 32.4H3.6V1.8ZM35.4726 10.2726C35.8005 9.93312 35.9819 9.47843 35.9778 9.00648C35.9737 8.53452 35.7844 8.08306 35.4507 7.74933C35.1169 7.41559 34.6655 7.22629 34.1935 7.22219C33.7216 7.21809 33.2669 7.39952 32.9274 7.7274L21.6 19.0548L15.6726 13.1274C15.335 12.79 14.8773 12.6004 14.4 12.6004C13.9227 12.6004 13.465 12.79 13.1274 13.1274L5.9274 20.3274C5.75548 20.4934 5.61835 20.6921 5.52402 20.9117C5.42968 21.1313 5.38003 21.3675 5.37795 21.6065C5.37587 21.8455 5.42142 22.0825 5.51192 22.3037C5.60243 22.5249 5.73608 22.7259 5.90509 22.8949C6.0741 23.0639 6.27507 23.1976 6.49628 23.2881C6.7175 23.3786 6.95452 23.4241 7.19352 23.4221C7.43253 23.42 7.66872 23.3703 7.88833 23.276C8.10794 23.1816 8.30656 23.0445 8.4726 22.8726L14.4 16.9452L20.3274 22.8726C20.665 23.21 21.1227 23.3996 21.6 23.3996C22.0773 23.3996 22.5351 23.21 22.8726 22.8726L35.4726 10.2726Z" fill="white"/>
</svg>
