<svg width="65" height="57" viewBox="0 0 65 57" fill="none" xmlns="http://www.w3.org/2000/svg">
<path d="M59.6212 21.7325H56.8239C58.115 25.6057 57.8998 27.327 57.8998 29.9091C57.8998 32.4912 56.4653 37.5119 55.748 39.3767L59.1908 39.5919C61.0557 39.305 64.7853 37.0959 64.7853 30.5546C64.7853 24.0134 61.486 22.0912 59.6212 21.7325Z" fill="#228942"/>
<path d="M57.6839 29.9091C57.6839 27.4045 57.8843 25.7424 56.7345 22.154L56.619 21.8006L56.5248 21.5173H59.6411L59.6612 21.5211C60.6384 21.7091 61.9773 22.3037 63.0708 23.6918C64.1651 25.081 64.9998 27.2474 64.9998 30.5546C64.9998 37.1956 61.199 39.5005 59.2229 39.8045L59.1998 39.8079L59.1767 39.8066L55.4414 39.573L55.5465 39.2994L55.6873 38.9182C56.0334 37.9483 56.4923 36.4398 56.8833 34.8602C57.3312 33.0507 57.6839 31.1719 57.6839 29.9091ZM58.1143 29.9091C58.1143 31.2283 57.7497 33.1509 57.3011 34.9636C56.8919 36.6166 56.4063 38.1975 56.0491 39.1796L59.1775 39.3754C60.9389 39.0926 64.5695 36.9715 64.5695 30.5546C64.5695 27.3206 63.7544 25.255 62.7329 23.9582C61.7173 22.6689 60.4838 22.1222 59.5974 21.9477H57.1199C58.3201 25.6617 58.1143 27.3934 58.1143 29.9091Z" fill="#228942"/>
<path d="M6.87972 39.263L9.05498 38.6667C7.443 34.9158 8.23228 33.9868 7.9791 30.985C7.72593 27.9833 8.28182 23.3492 8.8398 21.4306L5.80759 21.4306C3.97346 21.8733 0.442651 24.388 0.992399 30.9061C1.54215 37.4242 4.99135 39.0624 6.87972 39.263Z" fill="#228942"/>
<path d="M8.21509 31.2491C8.40607 34.1006 7.70811 34.9873 9.25274 38.5815L9.35034 38.8086L9.1121 38.8743L6.93678 39.4702L6.89763 39.4811L6.85721 39.4769C5.86766 39.3718 4.48318 38.8919 3.27686 37.6005C2.06964 36.3082 1.05586 34.2196 0.777913 30.9241C0.21978 24.3065 3.8139 21.6903 5.7574 21.2213L5.78221 21.2155L8.83989 21.2153L9.12671 21.2155L9.04657 21.4905L8.99507 21.675C8.73856 22.6349 8.48514 24.1652 8.31963 25.8229C8.15424 27.4796 8.07831 29.2481 8.17251 30.6842L8.21509 31.2491ZM7.76498 31.0028C7.63685 29.4836 7.71361 27.5602 7.89132 25.7802C8.05319 24.159 8.30086 22.6422 8.55864 21.646L5.83621 21.6457C4.10412 22.0771 0.667679 24.4965 1.20674 30.8879C1.47853 34.1105 2.46466 36.1002 3.59158 37.3066C4.70372 38.4971 5.96823 38.9407 6.86501 39.0444L8.76205 38.5242C7.25999 34.9171 8.0066 33.8677 7.76498 31.0028Z" fill="#228942"/>
<path d="M51.8747 28.618C51.8747 38.9568 43.4934 47.3381 33.1546 47.3381C30.0514 47.3381 27.1245 46.583 24.5477 45.2465C23.2556 44.5764 15.9591 50.8608 14.8649 49.9202C13.8892 49.0814 19.0934 41.0431 18.3081 40.0222C15.8789 36.8645 14.4346 32.9099 14.4346 28.618C14.4346 18.2792 22.8158 9.89795 33.1546 9.89795C43.4934 9.89795 51.8747 18.2792 51.8747 28.618Z" fill="#228942"/>
<path d="M57.2542 28.618C57.2542 15.0706 46.2719 4.08826 32.7244 4.08826C19.177 4.08826 8.1947 15.0706 8.1947 28.618C8.1947 31.5489 8.70837 34.3577 9.64964 36.9606L9.84338 37.4783L9.87784 37.583C10.0224 38.1087 9.74833 38.669 9.22896 38.8702C8.70956 39.0715 8.12942 38.8422 7.88203 38.3563L7.83706 38.2558L7.72989 37.9747C6.63897 35.0618 6.04297 31.9083 6.04297 28.618C6.04297 13.8822 17.9887 1.93652 32.7244 1.93652C47.4602 1.93652 59.4059 13.8822 59.4059 28.618C59.4059 43.3538 47.4602 55.2995 32.7244 55.2995C31.7285 55.2995 30.745 55.245 29.7767 55.1385L29.3628 55.0898L29.2539 55.0704C28.7226 54.948 28.3599 54.4405 28.4294 53.8878C28.4989 53.3352 28.9761 52.9334 29.5212 52.9464L29.6309 52.9548L30.0117 52.9994C30.9021 53.0973 31.8072 53.1477 32.7244 53.1477C46.2719 53.1477 57.2542 42.1654 57.2542 28.618Z" fill="#228942"/>
<path d="M32.5087 0C40.8928 0 47.6003 4.60211 50.2576 7.21082L50.5022 7.45668L50.5921 7.5546C51.4912 8.58304 51.4352 10.1472 50.4425 11.1079C49.4498 12.0686 47.8847 12.0733 46.8863 11.1411L46.7913 11.0482L46.6085 10.8646C44.6066 8.9087 39.1329 5.16416 32.5087 5.16416C25.6809 5.16416 20.2226 9.14461 18.4716 11.0163C17.4975 12.0576 15.8635 12.1123 14.8221 11.1382C13.7807 10.164 13.7261 8.53002 14.7002 7.48862C17.1094 4.91333 23.8442 0 32.5087 0Z" fill="#228942"/>
<path d="M34.3069 51.671C35.479 51.4757 36.5876 52.2674 36.783 53.4395C36.9784 54.6116 36.1867 55.7202 35.0146 55.9157C33.5702 56.1564 31.9586 56.1649 30.3703 55.9661L30.053 55.9236L29.9437 55.9052C28.8264 55.6873 28.0642 54.6287 28.227 53.4891C28.3898 52.3495 29.4178 51.5468 30.5514 51.6504L30.6615 51.663L30.9091 51.6963C32.1433 51.8504 33.3307 51.8337 34.3069 51.671Z" fill="#228942"/>
<path d="M22.1807 31.9555V26.8409C22.1807 26.4878 22.4669 26.2015 22.82 26.2015C23.1731 26.2015 23.4593 26.4878 23.4593 26.8409V31.9555C23.4593 32.3086 23.1731 32.5948 22.82 32.5948C22.4669 32.5948 22.1807 32.3086 22.1807 31.9555Z" fill="white"/>
<path d="M24.7383 35.7915V24.2837C24.7383 23.9306 25.0245 23.6443 25.3776 23.6443C25.7307 23.6443 26.0169 23.9306 26.0169 24.2837V35.7915C26.0169 36.1446 25.7307 36.4308 25.3776 36.4308C25.0245 36.4308 24.7383 36.1446 24.7383 35.7915Z" fill="white"/>
<path d="M27.2949 30.6768V28.1195C27.2949 27.7664 27.5812 27.4802 27.9343 27.4802C28.2873 27.4802 28.5736 27.7664 28.5736 28.1195V30.6768C28.5736 31.0299 28.2873 31.3161 27.9343 31.3161C27.5812 31.3161 27.2949 31.0299 27.2949 30.6768Z" fill="white"/>
<path d="M29.8525 34.275V25.5623C29.8525 25.2092 30.1388 24.923 30.4919 24.923C30.845 24.923 31.1312 25.2092 31.1312 25.5623V34.275C31.1312 34.6281 30.845 34.9144 30.4919 34.9144C30.1388 34.9144 29.8525 34.6281 29.8525 34.275Z" fill="white"/>
<path d="M32.4102 37.0702V21.7264C32.4102 21.3733 32.6964 21.0871 33.0495 21.0871C33.4026 21.0871 33.6888 21.3733 33.6888 21.7264V37.0702C33.6888 37.4233 33.4026 37.7095 33.0495 37.7095C32.6964 37.7095 32.4102 37.4233 32.4102 37.0702Z" fill="white"/>
<path d="M44.1279 27.4576L44.1279 32.5722C44.1279 32.9252 43.8417 33.2115 43.4886 33.2115C43.1355 33.2115 42.8493 32.9252 42.8493 32.5722L42.8493 27.4576C42.8493 27.1045 43.1355 26.8182 43.4886 26.8182C43.8417 26.8182 44.1279 27.1045 44.1279 27.4576Z" fill="white"/>
<path d="M41.5703 23.6217L41.5703 35.1296C41.5703 35.4827 41.2841 35.7689 40.931 35.7689C40.5779 35.7689 40.2916 35.4827 40.2916 35.1296L40.2916 23.6217C40.2917 23.2687 40.5779 22.9824 40.931 22.9824C41.2841 22.9824 41.5703 23.2687 41.5703 23.6217Z" fill="white"/>
<path d="M39.0137 28.7362L39.0137 31.2935C39.0137 31.6466 38.7274 31.9329 38.3743 31.9329C38.0213 31.9329 37.735 31.6466 37.735 31.2935L37.735 28.7362C37.735 28.3831 38.0213 28.0969 38.3743 28.0969C38.7274 28.0969 39.0137 28.3831 39.0137 28.7362Z" fill="white"/>
<path d="M36.4561 25.1382L36.4561 33.8509C36.4561 34.204 36.1698 34.4902 35.8167 34.4902C35.4636 34.4902 35.1774 34.204 35.1774 33.8509L35.1774 25.1382C35.1774 24.7851 35.4636 24.4989 35.8167 24.4989C36.1698 24.4989 36.4561 24.7851 36.4561 25.1382Z" fill="white"/>
</svg>
