<svg width="50" height="51" viewBox="0 0 50 51" fill="none" xmlns="http://www.w3.org/2000/svg">
<g clip-path="url(#clip0_101_3999)">
<path d="M25 50.5C38.8071 50.5 50 39.3071 50 25.5C50 11.6929 38.8071 0.5 25 0.5C11.1929 0.5 0 11.6929 0 25.5C0 39.3071 11.1929 50.5 25 50.5Z" fill="#3A99D7"/>
<path d="M49.7429 29.1221L38.8124 18.1917L12.0898 35.191L27.3023 50.4035C38.8285 49.3411 48.1009 40.4711 49.7429 29.1221Z" fill="#2682BF"/>
<path d="M38.8122 18.1914H12.0898V35.1907H38.8122V18.1914Z" fill="#F7C600"/>
<path d="M12.0898 18.1917H38.8124L25.4511 9.96558L12.0898 18.1917Z" fill="#FFD630"/>
<path d="M15.9047 15.1328H35.0128C36.0109 15.1328 36.8157 15.9377 36.8157 16.9357V35.1907H14.1016V16.9358C14.1016 15.9378 14.9065 15.1328 15.9047 15.1328Z" fill="white"/>
<path d="M12.0898 18.1917L25.1612 26.6914L12.0898 35.1911V18.1917Z" fill="#FFD630"/>
<path d="M12.0898 35.1909H38.8124L25.4512 26.675L12.0898 35.1909Z" fill="#F5BE18"/>
<path d="M38.8117 18.1917L25.7402 26.6914L38.8117 35.1911V18.1917Z" fill="#FFD630"/>
<path d="M18.9951 17.3062H31.9217V18.3686H18.9951V17.3062ZM18.9951 21.0087H31.9217V22.0711H18.9951V21.0087ZM18.9951 19.1574H31.9217V20.2198H18.9951V19.1574Z" fill="#999999"/>
</g>
<defs>
<clipPath id="clip0_101_3999">
<rect width="50" height="50" fill="white" transform="translate(0 0.5)"/>
</clipPath>
</defs>
</svg>
