<svg width="366" height="214" viewBox="0 0 366 214" fill="none" xmlns="http://www.w3.org/2000/svg">
<path d="M78.1129 28.2684C102.901 18.3986 168.418 2.53935 232.187 18.0587C295.956 33.5781 288.639 84.0839 277.009 107.397C261.05 135.22 211.865 194.847 142.799 210.775C119.28 216.198 99.0357 214.333 82.0492 208.505C31.8054 191.269 6.89819 145.87 20.8424 95.2774C31.2299 57.5893 59.5908 35.777 78.1129 28.2684Z" fill="#E6F1F9"/>
<path d="M19.4199 57.0223C19.4199 53.4502 22.3157 50.5544 25.8878 50.5544H192.113C195.685 50.5544 198.581 53.4502 198.581 57.0223V111.999C198.581 115.572 195.685 118.467 192.113 118.467H25.8878C22.3157 118.467 19.4199 115.572 19.4199 111.999V57.0223Z" fill="white"/>
<g clip-path="url(#clip0_308_4051)">
<rect width="153" height="42.0413" transform="translate(33.4199 63.5544)" fill="white"/>
<path d="M33.4199 85.6973V83.4116C33.4199 82.9382 33.9348 82.5544 34.5699 82.5544C35.205 82.5544 35.7199 82.9382 35.7199 83.4116V85.6973C35.7199 86.1707 35.205 86.5544 34.5699 86.5544C33.9348 86.5544 33.4199 86.1707 33.4199 85.6973Z" fill="#3C77EF"/>
<path d="M38.4199 89.5839V80.525C38.4199 79.989 38.9348 79.5544 39.5699 79.5544C40.205 79.5544 40.7199 79.989 40.7199 80.525V89.5839C40.7199 90.1199 40.205 90.5544 39.5699 90.5544C38.9348 90.5544 38.4199 90.1199 38.4199 89.5839Z" fill="#3C77EF"/>
<path d="M43.4199 92.5544V76.5544C43.4199 76.0022 43.9348 75.5544 44.5699 75.5544C45.205 75.5544 45.7199 76.0022 45.7199 76.5544V92.5544C45.7199 93.1067 45.205 93.5544 44.5699 93.5544C43.9348 93.5544 43.4199 93.1067 43.4199 92.5544Z" fill="#3C77EF"/>
<path d="M48.4199 94.5544V74.5544C48.4199 74.0022 48.9348 73.5544 49.5699 73.5544C50.205 73.5544 50.7199 74.0022 50.7199 74.5544V94.5544C50.7199 95.1067 50.205 95.5544 49.5699 95.5544C48.9348 95.5544 48.4199 95.1067 48.4199 94.5544Z" fill="#3C77EF"/>
<path d="M53.4199 92.6234V76.4855C53.4199 75.9713 53.9348 75.5544 54.5699 75.5544C55.205 75.5544 55.7199 75.9713 55.7199 76.4855V92.6234C55.7199 93.1376 55.205 93.5544 54.5699 93.5544C53.9348 93.5544 53.4199 93.1376 53.4199 92.6234Z" fill="#3C77EF"/>
<path d="M58.4199 89.5544V79.5544C58.4199 79.0022 58.9348 78.5544 59.5699 78.5544C60.205 78.5544 60.7199 79.0022 60.7199 79.5544V89.5544C60.7199 90.1067 60.205 90.5544 59.5699 90.5544C58.9348 90.5544 58.4199 90.1067 58.4199 89.5544Z" fill="#3C77EF"/>
<path d="M63.4199 91.5749V77.534C63.4199 76.993 63.9348 76.5544 64.5699 76.5544C65.205 76.5544 65.7199 76.993 65.7199 77.534V91.5749C65.7199 92.1159 65.205 92.5544 64.5699 92.5544C63.9348 92.5544 63.4199 92.1159 63.4199 91.5749Z" fill="#3C77EF"/>
<path d="M68.4199 88.6454V80.4635C68.4199 79.9615 68.9348 79.5544 69.5699 79.5544C70.205 79.5544 70.7199 79.9615 70.7199 80.4635V88.6454C70.7199 89.1474 70.205 89.5544 69.5699 89.5544C68.9348 89.5544 68.4199 89.1474 68.4199 88.6454Z" fill="#3C77EF"/>
<path d="M73.4199 87.6314V81.4775C73.4199 80.9677 73.9348 80.5544 74.5699 80.5544C75.205 80.5544 75.7199 80.9677 75.7199 81.4775V87.6314C75.7199 88.1412 75.205 88.5544 74.5699 88.5544C73.9348 88.5544 73.4199 88.1412 73.4199 87.6314Z" fill="#3C77EF"/>
<path d="M77.4199 86.5544V82.5544C77.4199 82.0022 77.9348 81.5544 78.5699 81.5544C79.205 81.5544 79.7199 82.0022 79.7199 82.5544V86.5544C79.7199 87.1067 79.205 87.5544 78.5699 87.5544C77.9348 87.5544 77.4199 87.1067 77.4199 86.5544Z" fill="#3C77EF"/>
<path d="M82.4199 87.6314V81.4775C82.4199 80.9677 82.9348 80.5544 83.5699 80.5544C84.205 80.5544 84.7199 80.9677 84.7199 81.4775V87.6314C84.7199 88.1412 84.205 88.5544 83.5699 88.5544C82.9348 88.5544 82.4199 88.1412 82.4199 87.6314Z" fill="#3C77EF"/>
<path d="M87.4199 88.6454V80.4635C87.4199 79.9615 87.9348 79.5544 88.5699 79.5544C89.205 79.5544 89.7199 79.9615 89.7199 80.4635V88.6454C89.7199 89.1474 89.205 89.5544 88.5699 89.5544C87.9348 89.5544 87.4199 89.1474 87.4199 88.6454Z" fill="#3C77EF"/>
<path d="M92.4199 91.5749V77.534C92.4199 76.993 92.9348 76.5544 93.5699 76.5544C94.205 76.5544 94.7199 76.993 94.7199 77.534V91.5749C94.7199 92.1159 94.205 92.5544 93.5699 92.5544C92.9348 92.5544 92.4199 92.1159 92.4199 91.5749Z" fill="#3C77EF"/>
<path d="M97.4199 88.6454V80.4635C97.4199 79.9615 97.9348 79.5544 98.5699 79.5544C99.205 79.5544 99.7199 79.9615 99.7199 80.4635V88.6454C99.7199 89.1474 99.205 89.5544 98.5699 89.5544C97.9348 89.5544 97.4199 89.1474 97.4199 88.6454Z" fill="#3C77EF"/>
<path d="M102.42 91.5749V77.534C102.42 76.993 102.935 76.5544 103.57 76.5544C104.205 76.5544 104.72 76.993 104.72 77.534V91.5749C104.72 92.1159 104.205 92.5544 103.57 92.5544C102.935 92.5544 102.42 92.1159 102.42 91.5749Z" fill="#3C77EF"/>
<path d="M107.42 89.6071V79.5018C107.42 78.9786 107.935 78.5544 108.57 78.5544C109.205 78.5544 109.72 78.9786 109.72 79.5018V89.6071C109.72 90.1303 109.205 90.5544 108.57 90.5544C107.935 90.5544 107.42 90.1303 107.42 89.6071Z" fill="#3C77EF"/>
<path d="M112.42 92.5544V76.5544C112.42 76.0022 112.935 75.5544 113.57 75.5544C114.205 75.5544 114.72 76.0022 114.72 76.5544V92.5544C114.72 93.1067 114.205 93.5544 113.57 93.5544C112.935 93.5544 112.42 93.1067 112.42 92.5544Z" fill="#3C77EF"/>
<path d="M117.42 99.5749V69.534C117.42 68.993 117.935 68.5544 118.57 68.5544C119.205 68.5544 119.72 68.993 119.72 69.534V99.5749C119.72 100.116 119.205 100.554 118.57 100.554C117.935 100.554 117.42 100.116 117.42 99.5749Z" fill="#3C77EF"/>
<path d="M122.42 94.5544V74.5544C122.42 74.0022 122.935 73.5544 123.57 73.5544C124.205 73.5544 124.72 74.0022 124.72 74.5544V94.5544C124.72 95.1067 124.205 95.5544 123.57 95.5544C122.935 95.5544 122.42 95.1067 122.42 94.5544Z" fill="#3C77EF"/>
<path d="M127.42 104.585V64.5237C127.42 63.9884 127.935 63.5544 128.57 63.5544C129.205 63.5544 129.72 63.9884 129.72 64.5237V104.585C129.72 105.121 129.205 105.554 128.57 105.554C127.935 105.554 127.42 105.121 127.42 104.585Z" fill="#3C77EF"/>
<path d="M134.42 94.5544V74.5544C134.42 74.0022 133.905 73.5544 133.27 73.5544C132.635 73.5544 132.12 74.0022 132.12 74.5544V94.5544C132.12 95.1067 132.635 95.5544 133.27 95.5544C133.905 95.5544 134.42 95.1067 134.42 94.5544Z" fill="#3C77EF"/>
<path d="M139.42 99.5749V69.534C139.42 68.993 138.905 68.5544 138.27 68.5544C137.635 68.5544 137.12 68.993 137.12 69.534V99.5749C137.12 100.116 137.635 100.554 138.27 100.554C138.905 100.554 139.42 100.116 139.42 99.5749Z" fill="#3C77EF"/>
<path d="M144.42 92.5544V76.5544C144.42 76.0022 143.905 75.5544 143.27 75.5544C142.635 75.5544 142.12 76.0022 142.12 76.5544V92.5544C142.12 93.1067 142.635 93.5544 143.27 93.5544C143.905 93.5544 144.42 93.1067 144.42 92.5544Z" fill="#3C77EF"/>
<path d="M149.42 89.6071V79.5018C149.42 78.9786 148.905 78.5544 148.27 78.5544C147.635 78.5544 147.12 78.9786 147.12 79.5018V89.6071C147.12 90.1303 147.635 90.5544 148.27 90.5544C148.905 90.5544 149.42 90.1303 149.42 89.6071Z" fill="#3C77EF"/>
<path d="M154.42 91.5749V77.534C154.42 76.993 153.905 76.5544 153.27 76.5544C152.635 76.5544 152.12 76.993 152.12 77.534V91.5749C152.12 92.1159 152.635 92.5544 153.27 92.5544C153.905 92.5544 154.42 92.1159 154.42 91.5749Z" fill="#3C77EF"/>
<path d="M158.42 88.6454V80.4635C158.42 79.9615 157.905 79.5544 157.27 79.5544C156.635 79.5544 156.12 79.9615 156.12 80.4635V88.6454C156.12 89.1474 156.635 89.5544 157.27 89.5544C157.905 89.5544 158.42 89.1474 158.42 88.6454Z" fill="#3C77EF"/>
<path d="M163.42 91.5749V77.534C163.42 76.993 162.905 76.5544 162.27 76.5544C161.635 76.5544 161.12 76.993 161.12 77.534V91.5749C161.12 92.1159 161.635 92.5544 162.27 92.5544C162.905 92.5544 163.42 92.1159 163.42 91.5749Z" fill="#3C77EF"/>
<path d="M168.42 88.6454V80.4635C168.42 79.9615 167.905 79.5544 167.27 79.5544C166.635 79.5544 166.12 79.9615 166.12 80.4635V88.6454C166.12 89.1474 166.635 89.5544 167.27 89.5544C167.905 89.5544 168.42 89.1474 168.42 88.6454Z" fill="#3C77EF"/>
<path d="M173.42 87.6314V81.4775C173.42 80.9677 172.905 80.5544 172.27 80.5544C171.635 80.5544 171.12 80.9677 171.12 81.4775V87.6314C171.12 88.1412 171.635 88.5544 172.27 88.5544C172.905 88.5544 173.42 88.1412 173.42 87.6314Z" fill="#3C77EF"/>
<path d="M178.42 86.5544V82.5544C178.42 82.0022 177.905 81.5544 177.27 81.5544C176.635 81.5544 176.12 82.0022 176.12 82.5544V86.5544C176.12 87.1067 176.635 87.5544 177.27 87.5544C177.905 87.5544 178.42 87.1067 178.42 86.5544Z" fill="#3C77EF"/>
<path d="M183.42 87.6314V81.4775C183.42 80.9677 182.905 80.5544 182.27 80.5544C181.635 80.5544 181.12 80.9677 181.12 81.4775V87.6314C181.12 88.1412 181.635 88.5544 182.27 88.5544C182.905 88.5544 183.42 88.1412 183.42 87.6314Z" fill="#3C77EF"/>
<path d="M188.42 88.6454V80.4635C188.42 79.9615 187.905 79.5544 187.27 79.5544C186.635 79.5544 186.12 79.9615 186.12 80.4635V88.6454C186.12 89.1474 186.635 89.5544 187.27 89.5544C187.905 89.5544 188.42 89.1474 188.42 88.6454Z" fill="#3C77EF"/>
</g>
<g filter="url(#filter0_d_308_4051)">
<path d="M156.42 114.745C156.42 111.173 159.316 108.277 162.888 108.277H329.113C332.685 108.277 335.581 111.173 335.581 114.745V169.722C335.581 173.294 332.685 176.19 329.113 176.19H162.888C159.316 176.19 156.42 173.294 156.42 169.722V114.745Z" fill="white"/>
<g clip-path="url(#clip1_308_4051)">
<path d="M174.39 133.137L190.883 133.137C191.419 133.137 191.854 132.703 191.854 132.167C191.854 131.664 191.472 131.251 190.982 131.202L190.883 131.197L174.39 131.197C173.854 131.197 173.42 131.631 173.42 132.167C173.42 132.703 173.854 133.137 174.39 133.137Z" fill="#3C77EF"/>
<path d="M194.116 133.137L200.908 133.137C201.444 133.137 201.878 132.703 201.878 132.167C201.878 131.664 201.496 131.251 201.007 131.202L200.908 131.197L194.116 131.197L194.017 131.202C193.528 131.251 193.146 131.664 193.146 132.167C193.146 132.669 193.528 133.082 194.017 133.132L194.116 133.137Z" fill="#3C77EF"/>
<path d="M204.142 133.137L216.431 133.137C216.967 133.137 217.401 132.703 217.401 132.167C217.401 131.664 217.02 131.251 216.53 131.202L216.431 131.197L204.142 131.197C203.606 131.197 203.172 131.631 203.172 132.167C203.172 132.703 203.606 133.137 204.142 133.137Z" fill="#3C77EF"/>
<path d="M219.665 133.137L227.103 133.137C227.639 133.137 228.073 132.703 228.073 132.167C228.073 131.664 227.691 131.251 227.202 131.202L227.103 131.197L219.665 131.197L219.566 131.202C219.077 131.251 218.695 131.664 218.695 132.167C218.695 132.669 219.077 133.082 219.566 133.132L219.665 133.137Z" fill="#3C77EF"/>
<path d="M230.338 133.137L234.218 133.137C234.754 133.137 235.188 132.703 235.188 132.167C235.188 131.664 234.807 131.251 234.317 131.202L234.218 131.197L230.338 131.197L230.238 131.202C229.749 131.251 229.367 131.664 229.367 132.167C229.367 132.669 229.749 133.082 230.238 133.132L230.338 133.137Z" fill="#3C77EF"/>
<path d="M237.452 133.137L263.324 133.137C263.86 133.137 264.294 132.703 264.294 132.167C264.294 131.631 263.86 131.197 263.324 131.197L237.452 131.197C236.916 131.197 236.482 131.631 236.482 132.167C236.482 132.703 236.916 133.137 237.452 133.137Z" fill="#3C77EF"/>
<path d="M266.558 133.137L271.732 133.137C272.268 133.137 272.702 132.703 272.702 132.167C272.702 131.664 272.32 131.251 271.831 131.202L271.732 131.197L266.558 131.197L266.458 131.202C265.969 131.251 265.587 131.664 265.587 132.167C265.587 132.669 265.969 133.082 266.458 133.132L266.558 133.137Z" fill="#3C77EF"/>
<path d="M274.965 133.137L287.254 133.137C287.79 133.137 288.225 132.703 288.225 132.167C288.225 131.664 287.843 131.251 287.354 131.202L287.254 131.197L274.965 131.197C274.43 131.197 273.995 131.631 273.995 132.167C273.995 132.703 274.43 133.137 274.965 133.137Z" fill="#3C77EF"/>
<path d="M290.488 133.137L302.13 133.137C302.666 133.137 303.101 132.703 303.101 132.167C303.101 131.631 302.666 131.197 302.13 131.197L290.488 131.197C289.952 131.197 289.518 131.631 289.518 132.167C289.518 132.703 289.952 133.137 290.488 133.137Z" fill="#3C77EF"/>
<path d="M305.365 133.137L319.918 133.137C320.453 133.137 320.888 132.703 320.888 132.167C320.888 131.631 320.453 131.197 319.918 131.197L305.365 131.197C304.829 131.197 304.395 131.631 304.395 132.167C304.395 132.703 304.829 133.137 305.365 133.137Z" fill="#3C77EF"/>
<path d="M174.39 140.077L186.679 140.077C187.215 140.077 187.649 139.643 187.649 139.107C187.649 138.605 187.268 138.192 186.778 138.142L186.679 138.137L174.39 138.137C173.854 138.137 173.42 138.571 173.42 139.107C173.42 139.643 173.854 140.077 174.39 140.077Z" fill="#3C77EF"/>
<path d="M189.913 140.077L197.351 140.077C197.887 140.077 198.321 139.643 198.321 139.107C198.321 138.605 197.94 138.192 197.45 138.142L197.351 138.137L189.913 138.137L189.814 138.142C189.325 138.192 188.943 138.605 188.943 139.107C188.943 139.609 189.325 140.023 189.814 140.072L189.913 140.077Z" fill="#3C77EF"/>
<path d="M200.585 140.077L217.078 140.077C217.613 140.077 218.048 139.643 218.048 139.107C218.048 138.605 217.666 138.192 217.177 138.142L217.078 138.137L200.585 138.137C200.049 138.137 199.614 138.571 199.614 139.107C199.614 139.643 200.049 140.077 200.585 140.077Z" fill="#3C77EF"/>
<path d="M220.312 140.077L224.193 140.077C224.729 140.077 225.163 139.643 225.163 139.107C225.163 138.605 224.781 138.192 224.292 138.142L224.193 138.137L220.312 138.137L220.213 138.142C219.724 138.192 219.342 138.605 219.342 139.107C219.342 139.609 219.724 140.023 220.213 140.072L220.312 140.077Z" fill="#3C77EF"/>
<path d="M227.426 140.077L239.715 140.077C240.251 140.077 240.686 139.643 240.686 139.107C240.686 138.605 240.304 138.192 239.815 138.142L239.715 138.137L227.426 138.137C226.891 138.137 226.456 138.571 226.456 139.107C226.456 139.643 226.891 140.077 227.426 140.077Z" fill="#3C77EF"/>
<path d="M242.949 140.077L248.124 140.077C248.659 140.077 249.094 139.643 249.094 139.107C249.094 138.605 248.712 138.192 248.223 138.142L248.124 138.137L242.949 138.137L242.85 138.142C242.361 138.192 241.979 138.605 241.979 139.107C241.979 139.609 242.361 140.023 242.85 140.072L242.949 140.077Z" fill="#3C77EF"/>
<path d="M251.357 140.077L277.229 140.077C277.765 140.077 278.199 139.643 278.199 139.107C278.199 138.571 277.765 138.137 277.229 138.137L251.357 138.137C250.822 138.137 250.387 138.571 250.387 139.107C250.387 139.643 250.822 140.077 251.357 140.077Z" fill="#3C77EF"/>
<path d="M280.463 140.077L292.105 140.077C292.641 140.077 293.075 139.643 293.075 139.107C293.075 138.571 292.641 138.137 292.105 138.137L280.463 138.137C279.927 138.137 279.493 138.571 279.493 139.107C279.493 139.643 279.927 140.077 280.463 140.077Z" fill="#3C77EF"/>
<path d="M295.339 140.077L309.892 140.077C310.428 140.077 310.862 139.643 310.862 139.107C310.862 138.571 310.428 138.137 309.892 138.137L295.339 138.137C294.804 138.137 294.369 138.571 294.369 139.107C294.369 139.643 294.804 140.077 295.339 140.077Z" fill="#3C77EF"/>
<path d="M313.126 140.077L319.918 140.077C320.453 140.077 320.888 139.643 320.888 139.107C320.888 138.605 320.506 138.192 320.017 138.142L319.918 138.137L313.126 138.137L313.027 138.142C312.538 138.192 312.156 138.605 312.156 139.107C312.156 139.609 312.538 140.023 313.027 140.072L313.126 140.077Z" fill="#3C77EF"/>
<path d="M174.39 147.018L186.679 147.018C187.215 147.018 187.649 146.583 187.649 146.048C187.649 145.545 187.268 145.132 186.778 145.082L186.679 145.077L174.39 145.077C173.854 145.077 173.42 145.512 173.42 146.048C173.42 146.583 173.854 147.018 174.39 147.018Z" fill="#3C77EF"/>
<path d="M189.913 147.018L206.406 147.018C206.942 147.018 207.376 146.583 207.376 146.048C207.376 145.545 206.994 145.132 206.505 145.082L206.406 145.077L189.913 145.077C189.377 145.077 188.942 145.512 188.942 146.048C188.942 146.583 189.377 147.018 189.913 147.018Z" fill="#3C77EF"/>
<path d="M209.64 147.018L217.078 147.018C217.613 147.018 218.048 146.583 218.048 146.048C218.048 145.545 217.666 145.132 217.177 145.082L217.078 145.077L209.64 145.077L209.54 145.082C209.051 145.132 208.669 145.545 208.669 146.048C208.669 146.55 209.051 146.963 209.54 147.013L209.64 147.018Z" fill="#3C77EF"/>
<path d="M220.312 147.018L224.193 147.018C224.729 147.018 225.163 146.583 225.163 146.048C225.163 145.545 224.781 145.132 224.292 145.082L224.193 145.077L220.312 145.077L220.213 145.082C219.724 145.132 219.342 145.545 219.342 146.048C219.342 146.55 219.724 146.963 220.213 147.013L220.312 147.018Z" fill="#3C77EF"/>
<path d="M227.426 147.018L239.715 147.018C240.251 147.018 240.686 146.583 240.686 146.048C240.686 145.545 240.304 145.132 239.815 145.082L239.715 145.077L227.426 145.077C226.891 145.077 226.456 145.512 226.456 146.048C226.456 146.583 226.891 147.018 227.426 147.018Z" fill="#3C77EF"/>
<path d="M242.949 147.018L268.821 147.018C269.357 147.018 269.791 146.583 269.791 146.048C269.791 145.512 269.357 145.077 268.821 145.077L242.949 145.077C242.413 145.077 241.979 145.512 241.979 146.048C241.979 146.583 242.413 147.018 242.949 147.018Z" fill="#3C77EF"/>
<path d="M272.055 147.018L286.608 147.018C287.144 147.018 287.578 146.583 287.578 146.048C287.578 145.512 287.144 145.077 286.608 145.077L272.055 145.077C271.519 145.077 271.085 145.512 271.085 146.048C271.085 146.583 271.519 147.018 272.055 147.018Z" fill="#3C77EF"/>
<path d="M289.842 147.018L295.016 147.018C295.552 147.018 295.986 146.583 295.986 146.048C295.986 145.545 295.605 145.132 295.115 145.082L295.016 145.077L289.842 145.077L289.743 145.082C289.253 145.132 288.872 145.545 288.872 146.048C288.872 146.55 289.253 146.963 289.743 147.013L289.842 147.018Z" fill="#3C77EF"/>
<path d="M298.25 147.018L309.892 147.018C310.428 147.018 310.862 146.583 310.862 146.048C310.862 145.512 310.428 145.077 309.892 145.077L298.25 145.077C297.714 145.077 297.28 145.512 297.28 146.048C297.28 146.583 297.714 147.018 298.25 147.018Z" fill="#3C77EF"/>
<path d="M313.126 147.018L319.918 147.018C320.453 147.018 320.888 146.583 320.888 146.048C320.888 145.545 320.506 145.132 320.017 145.082L319.918 145.077L313.126 145.077L313.027 145.082C312.538 145.132 312.156 145.545 312.156 146.048C312.156 146.55 312.538 146.963 313.027 147.013L313.126 147.018Z" fill="#3C77EF"/>
<path d="M174.39 153.958L190.883 153.958C191.419 153.958 191.854 153.524 191.854 152.988C191.854 152.485 191.472 152.072 190.982 152.023L190.883 152.018L174.39 152.018C173.854 152.018 173.42 152.452 173.42 152.988C173.42 153.524 173.854 153.958 174.39 153.958Z" fill="#3C77EF"/>
<path d="M194.117 153.958L201.555 153.958C202.091 153.958 202.525 153.524 202.525 152.988C202.525 152.485 202.144 152.072 201.654 152.023L201.555 152.018L194.117 152.018L194.018 152.023C193.529 152.072 193.147 152.485 193.147 152.988C193.147 153.49 193.529 153.903 194.018 153.953L194.117 153.958Z" fill="#3C77EF"/>
<path d="M204.789 153.958L209.963 153.958C210.499 153.958 210.934 153.524 210.934 152.988C210.934 152.485 210.552 152.072 210.063 152.023L209.963 152.018L204.789 152.018L204.69 152.023C204.201 152.072 203.819 152.485 203.819 152.988C203.819 153.49 204.201 153.903 204.69 153.953L204.789 153.958Z" fill="#3C77EF"/>
<path d="M213.197 153.958L225.486 153.958C226.022 153.958 226.456 153.524 226.456 152.988C226.456 152.485 226.074 152.072 225.585 152.023L225.486 152.018L213.197 152.018C212.661 152.018 212.227 152.452 212.227 152.988C212.227 153.524 212.661 153.958 213.197 153.958Z" fill="#3C77EF"/>
<path d="M228.72 153.958L241.009 153.958C241.545 153.958 241.979 153.524 241.979 152.988C241.979 152.485 241.598 152.072 241.108 152.023L241.009 152.018L228.72 152.018C228.184 152.018 227.75 152.452 227.75 152.988C227.75 153.524 228.184 153.958 228.72 153.958Z" fill="#3C77EF"/>
<path d="M244.243 153.958L248.124 153.958C248.659 153.958 249.094 153.524 249.094 152.988C249.094 152.485 248.712 152.072 248.223 152.023L248.124 152.018L244.243 152.018L244.144 152.023C243.654 152.072 243.273 152.485 243.273 152.988C243.273 153.49 243.654 153.903 244.144 153.953L244.243 153.958Z" fill="#3C77EF"/>
<path d="M251.358 153.958L265.911 153.958C266.446 153.958 266.881 153.524 266.881 152.988C266.881 152.452 266.446 152.018 265.911 152.018L251.358 152.018C250.822 152.018 250.388 152.452 250.388 152.988C250.388 153.524 250.822 153.958 251.358 153.958Z" fill="#3C77EF"/>
<path d="M269.144 153.958L280.787 153.958C281.322 153.958 281.757 153.524 281.757 152.988C281.757 152.452 281.322 152.018 280.787 152.018L269.144 152.018C268.609 152.018 268.174 152.452 268.174 152.988C268.174 153.524 268.609 153.958 269.144 153.958Z" fill="#3C77EF"/>
<path d="M284.021 153.958L309.892 153.958C310.428 153.958 310.862 153.524 310.862 152.988C310.862 152.452 310.428 152.018 309.892 152.018L284.021 152.018C283.485 152.018 283.05 152.452 283.05 152.988C283.05 153.524 283.485 153.958 284.021 153.958Z" fill="#3C77EF"/>
<path d="M313.126 153.958L319.918 153.958C320.453 153.958 320.888 153.524 320.888 152.988C320.888 152.485 320.506 152.072 320.017 152.023L319.918 152.018L313.126 152.018L313.027 152.023C312.538 152.072 312.156 152.485 312.156 152.988C312.156 153.49 312.538 153.903 313.027 153.953L313.126 153.958Z" fill="#3C77EF"/>
<path d="M174.39 160.898L186.679 160.898C187.215 160.898 187.649 160.464 187.649 159.928C187.649 159.426 187.268 159.013 186.778 158.963L186.679 158.958L174.39 158.958C173.854 158.958 173.42 159.392 173.42 159.928C173.42 160.464 173.854 160.898 174.39 160.898Z" fill="#3C77EF"/>
<path d="M189.913 160.898L197.351 160.898C197.887 160.898 198.321 160.464 198.321 159.928C198.321 159.426 197.94 159.013 197.45 158.963L197.351 158.958L189.913 158.958L189.814 158.963C189.325 159.013 188.943 159.426 188.943 159.928C188.943 160.431 189.325 160.844 189.814 160.893L189.913 160.898Z" fill="#3C77EF"/>
<path d="M200.585 160.898L217.078 160.898C217.613 160.898 218.048 160.464 218.048 159.928C218.048 159.426 217.666 159.013 217.177 158.963L217.078 158.958L200.585 158.958C200.049 158.958 199.614 159.392 199.614 159.928C199.614 160.464 200.049 160.898 200.585 160.898Z" fill="#3C77EF"/>
<path d="M220.312 160.898L224.193 160.898C224.729 160.898 225.163 160.464 225.163 159.928C225.163 159.426 224.781 159.013 224.292 158.963L224.193 158.958L220.312 158.958L220.213 158.963C219.724 159.013 219.342 159.426 219.342 159.928C219.342 160.431 219.724 160.844 220.213 160.893L220.312 160.898Z" fill="#3C77EF"/>
<path d="M227.426 160.898L239.715 160.898C240.251 160.898 240.686 160.464 240.686 159.928C240.686 159.426 240.304 159.013 239.815 158.963L239.715 158.958L227.426 158.958C226.891 158.958 226.456 159.392 226.456 159.928C226.456 160.464 226.891 160.898 227.426 160.898Z" fill="#3C77EF"/>
<path d="M242.949 160.898L248.124 160.898C248.659 160.898 249.094 160.464 249.094 159.928C249.094 159.426 248.712 159.013 248.223 158.963L248.124 158.958L242.949 158.958L242.85 158.963C242.361 159.013 241.979 159.426 241.979 159.928C241.979 160.431 242.361 160.844 242.85 160.893L242.949 160.898Z" fill="#3C77EF"/>
</g>
</g>
<path d="M265.374 107.279V105.662C265.374 105.305 265.664 105.015 266.021 105.015C266.378 105.015 266.668 105.305 266.668 105.662V107.279C266.668 107.636 266.378 107.926 266.021 107.926C265.664 107.926 265.374 107.636 265.374 107.279ZM265.374 102.428V99.1942C265.374 98.837 265.664 98.5474 266.021 98.5474C266.378 98.5474 266.668 98.837 266.668 99.1942V102.428C266.668 102.785 266.378 103.075 266.021 103.075C265.664 103.075 265.374 102.785 265.374 102.428ZM265.374 95.9603V92.7263C265.374 92.3691 265.664 92.0795 266.021 92.0795C266.378 92.0795 266.668 92.3691 266.668 92.7263V95.9603C266.668 96.3175 266.378 96.6071 266.021 96.6071C265.664 96.6071 265.374 96.3175 265.374 95.9603ZM265.374 89.4924V86.2584C265.374 85.9012 265.664 85.6116 266.021 85.6116C266.378 85.6116 266.668 85.9012 266.668 86.2584V89.4924C266.668 89.8496 266.378 90.1392 266.021 90.1392C265.664 90.1392 265.374 89.8496 265.374 89.4924ZM265.374 83.0245V79.7905C265.374 79.4333 265.664 79.1437 266.021 79.1437C266.378 79.1437 266.668 79.4333 266.668 79.7905V83.0245C266.668 83.3817 266.378 83.6713 266.021 83.6713C265.664 83.6713 265.374 83.3817 265.374 83.0245ZM265.374 76.5566V73.3226C265.374 72.9654 265.664 72.6759 266.021 72.6759C266.378 72.6759 266.668 72.9654 266.668 73.3226V76.5566C266.668 76.9138 266.378 77.2034 266.021 77.2034C265.664 77.2034 265.374 76.9138 265.374 76.5566ZM265.374 70.0887V66.8548C265.374 66.4975 265.664 66.208 266.021 66.208C266.378 66.208 266.668 66.4975 266.668 66.8548V70.0887C266.668 70.4459 266.378 70.7355 266.021 70.7355C265.664 70.7355 265.374 70.4459 265.374 70.0887ZM265.374 63.6208V60.3869C265.374 60.0296 265.664 59.7401 266.021 59.7401C266.378 59.7401 266.668 60.0296 266.668 60.3869V63.6208C266.668 63.978 266.378 64.2676 266.021 64.2676C265.664 64.2676 265.374 63.978 265.374 63.6208ZM265.374 57.1529V53.919C265.374 53.5618 265.664 53.2722 266.021 53.2722C266.378 53.2722 266.668 53.5618 266.668 53.919V57.1529C266.668 57.5101 266.378 57.7997 266.021 57.7997C265.664 57.7997 265.374 57.5101 265.374 57.1529ZM265.374 50.685V47.4511C265.374 47.0939 265.664 46.8043 266.021 46.8043C266.378 46.8043 266.668 47.0939 266.668 47.4511V50.685C266.668 51.0422 266.378 51.3318 266.021 51.3318C265.664 51.3318 265.374 51.0422 265.374 50.685ZM163.828 49.3914V47.734C163.828 47.3768 164.118 47.0873 164.475 47.0873C164.832 47.0873 165.122 47.3768 165.122 47.734V49.3914C165.122 49.7487 164.832 50.0382 164.475 50.0382C164.118 50.0382 163.828 49.7487 163.828 49.3914ZM163.828 44.4193V41.1045C163.828 40.7472 164.118 40.4577 164.475 40.4577C164.832 40.4577 165.122 40.7472 165.122 41.1045V44.4193C165.122 44.7765 164.832 45.066 164.475 45.066C164.118 45.066 163.828 44.7765 163.828 44.4193ZM265.374 44.2171V40.9832C265.374 40.626 265.664 40.3364 266.021 40.3364C266.378 40.3364 266.668 40.626 266.668 40.9832V44.2171C266.668 44.5743 266.378 44.8639 266.021 44.8639C265.664 44.8639 265.374 44.5743 265.374 44.2171ZM163.828 37.7897V35.4855H166.062C166.419 35.4855 166.708 35.7751 166.708 36.1323C166.708 36.4895 166.419 36.7791 166.062 36.7791H165.122V37.7897C165.122 38.1469 164.832 38.4364 164.475 38.4364C164.118 38.4364 163.828 38.1469 163.828 37.7897ZM265.374 37.7492V36.7791H264.434C264.077 36.7791 263.787 36.4895 263.787 36.1323C263.787 35.7751 264.077 35.4855 264.434 35.4855H266.668V37.7492C266.668 38.1064 266.378 38.396 266.021 38.396C265.664 38.396 265.374 38.1064 265.374 37.7492ZM172.408 35.4855C172.765 35.4855 173.055 35.7751 173.055 36.1323C173.055 36.4895 172.765 36.7791 172.408 36.7791H169.235C168.878 36.7791 168.588 36.4895 168.588 36.1323C168.588 35.7751 168.878 35.4855 169.235 35.4855H172.408ZM178.755 35.4855C179.112 35.4855 179.402 35.7751 179.402 36.1323C179.402 36.4895 179.112 36.7791 178.755 36.7791H175.581C175.224 36.7791 174.935 36.4895 174.935 36.1323C174.935 35.7751 175.224 35.4855 175.581 35.4855H178.755ZM185.101 35.4855C185.459 35.4855 185.748 35.7751 185.748 36.1323C185.748 36.4895 185.459 36.7791 185.101 36.7791H181.928C181.571 36.7791 181.281 36.4895 181.281 36.1323C181.281 35.7751 181.571 35.4855 181.928 35.4855H185.101ZM191.448 35.4855C191.805 35.4855 192.095 35.7751 192.095 36.1323C192.095 36.4895 191.805 36.7791 191.448 36.7791H188.275C187.918 36.7791 187.628 36.4895 187.628 36.1323C187.628 35.7751 187.918 35.4855 188.275 35.4855H191.448ZM197.795 35.4855C198.152 35.4855 198.441 35.7751 198.441 36.1323C198.441 36.4895 198.152 36.7791 197.795 36.7791H194.621C194.264 36.7791 193.975 36.4895 193.975 36.1323C193.975 35.7751 194.264 35.4855 194.621 35.4855H197.795ZM204.141 35.4855C204.498 35.4855 204.788 35.7751 204.788 36.1323C204.788 36.4895 204.498 36.7791 204.141 36.7791H200.968C200.611 36.7791 200.321 36.4895 200.321 36.1323C200.321 35.7751 200.611 35.4855 200.968 35.4855H204.141ZM210.488 35.4855C210.845 35.4855 211.135 35.7751 211.135 36.1323C211.135 36.4895 210.845 36.7791 210.488 36.7791H207.315C206.957 36.7791 206.668 36.4895 206.668 36.1323C206.668 35.7751 206.957 35.4855 207.315 35.4855H210.488ZM216.835 35.4855C217.192 35.4855 217.481 35.7751 217.481 36.1323C217.481 36.4895 217.192 36.7791 216.835 36.7791H213.661C213.304 36.7791 213.014 36.4895 213.014 36.1323C213.014 35.7751 213.304 35.4855 213.661 35.4855H216.835ZM223.181 35.4855C223.538 35.4855 223.828 35.7751 223.828 36.1323C223.828 36.4895 223.538 36.7791 223.181 36.7791H220.008C219.651 36.7791 219.361 36.4895 219.361 36.1323C219.361 35.7751 219.651 35.4855 220.008 35.4855H223.181ZM229.528 35.4855C229.885 35.4855 230.175 35.7751 230.175 36.1323C230.175 36.4895 229.885 36.7791 229.528 36.7791H226.354C225.997 36.7791 225.708 36.4895 225.708 36.1323C225.708 35.7751 225.997 35.4855 226.354 35.4855H229.528ZM235.874 35.4855C236.232 35.4855 236.521 35.7751 236.521 36.1323C236.521 36.4895 236.232 36.7791 235.874 36.7791H232.701C232.344 36.7791 232.054 36.4895 232.054 36.1323C232.054 35.7751 232.344 35.4855 232.701 35.4855H235.874ZM242.221 35.4855C242.578 35.4855 242.868 35.7751 242.868 36.1323C242.868 36.4895 242.578 36.7791 242.221 36.7791H239.048C238.69 36.7791 238.401 36.4895 238.401 36.1323C238.401 35.7751 238.69 35.4855 239.048 35.4855H242.221ZM248.568 35.4855C248.925 35.4855 249.214 35.7751 249.214 36.1323C249.214 36.4895 248.925 36.7791 248.568 36.7791H245.394C245.037 36.7791 244.748 36.4895 244.748 36.1323C244.748 35.7751 245.037 35.4855 245.394 35.4855H248.568ZM254.914 35.4855C255.271 35.4855 255.561 35.7751 255.561 36.1323C255.561 36.4895 255.271 36.7791 254.914 36.7791H251.741C251.384 36.7791 251.094 36.4895 251.094 36.1323C251.094 35.7751 251.384 35.4855 251.741 35.4855H254.914ZM261.261 35.4855C261.618 35.4855 261.908 35.7751 261.908 36.1323C261.908 36.4895 261.618 36.7791 261.261 36.7791H258.088C257.73 36.7791 257.441 36.4895 257.441 36.1323C257.441 35.7751 257.73 35.4855 258.088 35.4855H261.261Z" fill="#9BA0AA"/>
<path d="M171.589 50.3616C171.589 54.6481 168.114 58.123 163.828 58.123C159.541 58.123 156.066 54.6481 156.066 50.3616C156.066 46.075 159.541 42.6001 163.828 42.6001C168.114 42.6001 171.589 46.075 171.589 50.3616Z" fill="#9BA0AA"/>
<path d="M160.891 50.9396C160.706 51.1328 160.712 51.44 160.905 51.6255C161.098 51.8111 161.405 51.8049 161.591 51.6116L164.292 48.7984L166.993 51.6116L167.029 51.6458C167.216 51.805 167.497 51.7995 167.679 51.6255C167.86 51.4516 167.876 51.1711 167.725 50.9775L167.692 50.9396L164.642 47.7619C164.55 47.6666 164.424 47.6128 164.292 47.6128C164.16 47.6128 164.033 47.6666 163.942 47.7619L160.891 50.9396Z" fill="white"/>
<path d="M160.891 50.9396C160.706 51.1328 160.712 51.44 160.905 51.6255C161.098 51.8111 161.405 51.8049 161.591 51.6116L164.292 48.7984L166.993 51.6116L167.029 51.6458C167.216 51.805 167.497 51.7995 167.679 51.6255C167.86 51.4516 167.876 51.1711 167.725 50.9775L167.692 50.9396L164.642 47.7619C164.55 47.6666 164.424 47.6128 164.292 47.6128C164.16 47.6128 164.033 47.6666 163.942 47.7619L160.891 50.9396Z" fill="white"/>
<path d="M273.783 111.807C273.783 116.093 270.308 119.568 266.021 119.568C261.735 119.568 258.26 116.093 258.26 111.807C258.26 107.52 261.735 104.045 266.021 104.045C270.308 104.045 273.783 107.52 273.783 111.807Z" fill="#9BA0AA"/>
<path d="M269.238 110.526C269.423 110.333 269.417 110.025 269.224 109.84C269.031 109.654 268.724 109.66 268.538 109.854L265.837 112.667L263.136 109.854L263.1 109.82C262.913 109.66 262.632 109.666 262.45 109.84C262.269 110.014 262.253 110.294 262.404 110.488L262.436 110.526L265.487 113.703C265.579 113.799 265.705 113.853 265.837 113.853C265.969 113.853 266.096 113.799 266.187 113.703L269.238 110.526Z" fill="white"/>
<circle cx="164.92" cy="36.0544" r="2.5" fill="#9BA0AA"/>
<circle cx="151" cy="198.554" r="3" fill="#3C77EF"/>
<circle cx="246.5" cy="92.0544" r="4.5" fill="#3C77EF"/>
<circle cx="23.6851" cy="126.24" r="14.1851" fill="#3C77EF" stroke="white" stroke-width="5"/>
<path d="M29.8359 125.932L20.1496 131.524L20.1496 120.34L29.8359 125.932Z" fill="white"/>
<path fill-rule="evenodd" clip-rule="evenodd" d="M84.0507 139.232L83.1473 141.148C83.0538 141.346 82.8677 141.485 82.6509 141.518L80.5699 141.836L82.0949 143.391C82.242 143.541 82.3088 143.752 82.2749 143.959L81.9214 146.116L83.7329 145.119C83.9308 145.01 84.1706 145.01 84.3685 145.119L86.1799 146.116L85.8265 143.959C85.7926 143.752 85.8594 143.541 86.0064 143.391L87.5315 141.836L85.4505 141.518C85.2337 141.485 85.0476 141.346 84.9541 141.148L84.0507 139.232ZM83.0964 138.165C83.4806 137.351 84.6208 137.351 85.005 138.165L85.9967 140.268L88.2023 140.606C89.1011 140.743 89.3783 141.836 88.7941 142.432L87.1814 144.076L87.5632 146.405C87.6966 147.22 86.851 147.99 86.0154 147.53L84.0507 146.449L82.086 147.53C81.2504 147.99 80.4048 147.22 80.5382 146.405L80.92 144.076L79.3073 142.432C78.723 141.836 79.0003 140.743 79.8991 140.606L82.1047 140.268L83.0964 138.165Z" fill="#3C77EF" fill-opacity="0.51"/>
<path fill-rule="evenodd" clip-rule="evenodd" d="M112.232 185.119L111.329 187.034C111.235 187.233 111.049 187.371 110.832 187.405L108.752 187.723L110.277 189.277C110.424 189.427 110.49 189.638 110.456 189.846L110.103 192.002L111.914 191.005C112.112 190.896 112.352 190.896 112.55 191.005L114.362 192.002L114.008 189.846C113.974 189.638 114.041 189.427 114.188 189.277L115.713 187.723L113.632 187.405C113.415 187.371 113.229 187.233 113.136 187.034L112.232 185.119ZM114.444 192.505C114.444 192.505 114.444 192.505 114.444 192.505V192.505ZM110.021 192.505C110.021 192.505 110.021 192.505 110.021 192.505V192.505ZM113.187 184.052C112.802 183.237 111.662 183.237 111.278 184.052C111.278 184.052 111.278 184.052 111.278 184.052L110.286 186.155L108.081 186.492C108.081 186.492 108.081 186.492 108.081 186.492C107.182 186.63 106.905 187.722 107.489 188.318L109.102 189.962L108.72 192.292C108.72 192.292 108.72 192.292 108.72 192.292C108.586 193.106 109.432 193.876 110.268 193.416L112.232 192.335L114.197 193.416C115.032 193.876 115.878 193.106 115.745 192.292C115.745 192.292 115.745 192.292 115.745 192.292L115.363 189.962L116.976 188.318C117.56 187.722 117.283 186.63 116.384 186.492C116.384 186.492 116.384 186.492 116.384 186.492L114.178 186.155L113.187 184.052C113.187 184.052 113.187 184.052 113.187 184.052Z" fill="#3C77EF" fill-opacity="0.51"/>
<path fill-rule="evenodd" clip-rule="evenodd" d="M203.051 14.2323L203.954 16.1477C204.048 16.3461 204.234 16.4849 204.451 16.5181L206.531 16.8364L205.006 18.391C204.859 18.5409 204.793 18.7519 204.827 18.9591L205.18 21.1159L203.369 20.1188C203.171 20.0099 202.931 20.0099 202.733 20.1188L200.921 21.1159L201.275 18.9591C201.309 18.7519 201.242 18.5409 201.095 18.391L199.57 16.8364L201.651 16.5181C201.868 16.4849 202.054 16.3461 202.147 16.1477L203.051 14.2323ZM205.262 21.6186C205.262 21.6186 205.262 21.6185 205.262 21.6185L205.262 21.6186ZM203.289 13.7278L203.289 13.7277C203.289 13.7277 203.289 13.7278 203.289 13.7278ZM204.005 13.1655C203.621 12.3508 202.481 12.3507 202.096 13.1654C202.096 13.1654 202.096 13.1655 202.096 13.1655L201.105 15.2681L198.899 15.6055C198.899 15.6055 198.899 15.6055 198.899 15.6055C198 15.743 197.723 16.8358 198.307 17.4317L199.92 19.0756L199.538 21.4053C199.538 21.4053 199.538 21.4053 199.538 21.4053C199.405 22.2197 200.25 22.9898 201.086 22.53L201.086 22.5299L203.051 21.4486L205.015 22.5299L205.015 22.53C205.851 22.9897 206.697 22.2198 206.563 21.4053C206.563 21.4053 206.563 21.4053 206.563 21.4052L206.181 19.0756L207.794 17.4317C208.378 16.8358 208.101 15.743 207.202 15.6055L204.997 15.2681L204.005 13.1655Z" fill="#3C77EF" fill-opacity="0.51"/>
<path d="M43 166.423V161.308C43 160.955 43.2862 160.669 43.6393 160.669C43.9924 160.669 44.2787 160.955 44.2787 161.308V166.423C44.2787 166.776 43.9924 167.062 43.6393 167.062C43.2862 167.062 43 166.776 43 166.423Z" fill="white"/>
<path d="M45.5576 170.259V158.751C45.5576 158.398 45.8439 158.112 46.1969 158.112C46.55 158.112 46.8363 158.398 46.8363 158.751V170.259C46.8363 170.612 46.55 170.898 46.1969 170.898C45.8439 170.898 45.5576 170.612 45.5576 170.259Z" fill="white"/>
<path d="M48.1143 165.144V162.587C48.1143 162.234 48.4005 161.948 48.7536 161.948C49.1067 161.948 49.3929 162.234 49.3929 162.587V165.144C49.3929 165.497 49.1067 165.783 48.7536 165.783C48.4005 165.783 48.1143 165.497 48.1143 165.144Z" fill="white"/>
<path d="M50.6719 168.742V160.03C50.6719 159.677 50.9581 159.39 51.3112 159.39C51.6643 159.39 51.9505 159.677 51.9505 160.03V168.742C51.9505 169.096 51.6643 169.382 51.3112 169.382C50.9581 169.382 50.6719 169.096 50.6719 168.742Z" fill="white"/>
<path d="M53.2295 171.538V156.194C53.2295 155.841 53.5157 155.554 53.8688 155.554C54.2219 155.554 54.5082 155.841 54.5082 156.194V171.538C54.5082 171.891 54.2219 172.177 53.8688 172.177C53.5157 172.177 53.2295 171.891 53.2295 171.538Z" fill="white"/>
<path d="M64.9473 161.925L64.9473 167.04C64.9473 167.393 64.661 167.679 64.3079 167.679C63.9548 167.679 63.6686 167.393 63.6686 167.04L63.6686 161.925C63.6686 161.572 63.9548 161.286 64.3079 161.286C64.661 161.286 64.9473 161.572 64.9473 161.925Z" fill="white"/>
<path d="M62.3896 158.089L62.3896 169.597C62.3896 169.95 62.1034 170.236 61.7503 170.236C61.3972 170.236 61.111 169.95 61.111 169.597L61.111 158.089C61.111 157.736 61.3972 157.45 61.7503 157.45C62.1034 157.45 62.3896 157.736 62.3896 158.089Z" fill="white"/>
<path d="M59.833 163.204L59.833 165.761C59.833 166.114 59.5468 166.4 59.1937 166.4C58.8406 166.4 58.5543 166.114 58.5543 165.761L58.5543 163.204C58.5543 162.85 58.8406 162.564 59.1937 162.564C59.5468 162.564 59.833 162.85 59.833 163.204Z" fill="white"/>
<path d="M57.2754 159.605L57.2754 168.318C57.2754 168.671 56.9891 168.958 56.6361 168.958C56.283 168.958 55.9967 168.671 55.9967 168.318L55.9967 159.605C55.9967 159.252 56.283 158.966 56.6361 158.966C56.9891 158.966 57.2754 159.252 57.2754 159.605Z" fill="white"/>
<path d="M48 33.8344C48 37.5458 45.0899 40.5544 41.5 40.5544C39.7976 40.5544 37.7508 39.4027 37.0893 38.7706C36.7164 38.4142 38.018 38.1113 39.5158 37.7696C41.6241 37.2887 43.3602 36.8081 44.4596 34.887C45.3322 33.3623 44.034 31.1157 42.3765 31.5651C42.2475 31.6001 42.1104 31.6367 41.9643 31.6744C40.1714 32.1378 41.1355 34.3089 40.1071 35.2744C38.4031 36.8744 35.8769 37.2328 35.6964 36.8639C35.407 36.2725 35 34.9243 35 33.8344C35 30.1231 37.9101 28.5544 41.5 28.5544C45.0899 28.5544 48 30.1231 48 33.8344Z" fill="#3C77EF"/>
<circle cx="130" cy="13" r="13" fill="#3C77EF"/>
<path fill-rule="evenodd" clip-rule="evenodd" d="M129.855 14.6975C131.098 14.6975 132.102 13.6936 132.102 12.45V7.95492C132.102 6.71129 131.098 5.7074 129.855 5.7074C128.611 5.7074 127.607 6.71129 127.607 7.95492V12.45C127.607 13.6936 128.611 14.6975 129.855 14.6975ZM129.105 7.95492C129.105 7.54288 129.443 7.20575 129.855 7.20575C130.267 7.20575 130.604 7.54288 130.604 7.95492V12.45C130.604 12.8695 130.274 13.1991 129.855 13.1991C129.443 13.1991 129.105 12.862 129.105 12.45V7.95492ZM133.825 12.45H135.099C135.099 15.0046 133.061 17.1173 130.604 17.4844V19.9417H129.105V17.4844C126.648 17.1173 124.61 15.0046 124.61 12.45H125.884C125.884 14.6975 127.787 16.2708 129.855 16.2708C131.922 16.2708 133.825 14.6975 133.825 12.45Z" fill="white"/>
<defs>
<filter id="filter0_d_308_4051" x="126.42" y="78.2767" width="239.16" height="127.913" filterUnits="userSpaceOnUse" color-interpolation-filters="sRGB">
<feFlood flood-opacity="0" result="BackgroundImageFix"/>
<feColorMatrix in="SourceAlpha" type="matrix" values="0 0 0 0 0 0 0 0 0 0 0 0 0 0 0 0 0 0 127 0" result="hardAlpha"/>
<feOffset/>
<feGaussianBlur stdDeviation="15"/>
<feComposite in2="hardAlpha" operator="out"/>
<feColorMatrix type="matrix" values="0 0 0 0 0 0 0 0 0 0 0 0 0 0 0 0 0 0 0.1 0"/>
<feBlend mode="normal" in2="BackgroundImageFix" result="effect1_dropShadow_308_4051"/>
<feBlend mode="normal" in="SourceGraphic" in2="effect1_dropShadow_308_4051" result="shape"/>
</filter>
<clipPath id="clip0_308_4051">
<rect width="153" height="42.0413" fill="white" transform="translate(33.4199 63.5544)"/>
</clipPath>
<clipPath id="clip1_308_4051">
<rect width="148" height="37" fill="white" transform="translate(173.42 126.554)"/>
</clipPath>
</defs>
</svg>
