<svg width="86" height="49" viewBox="0 0 86 49" fill="none" xmlns="http://www.w3.org/2000/svg">
<path d="M15.502 26.8135C20.0897 26.8135 23.8087 30.595 23.8087 35.2598C23.8087 39.9247 20.0897 43.7062 15.502 43.7062C10.9143 43.7062 7.19531 39.9247 7.19531 35.2598C7.19531 30.595 10.9143 26.8135 15.502 26.8135ZM15.4744 29.7945C12.5481 29.7945 10.1758 32.2291 10.1758 35.2322C10.1758 38.2354 12.5481 40.6699 15.4744 40.6699C18.4008 40.6699 20.773 38.2354 20.773 35.2322C20.773 32.2291 18.4008 29.7945 15.4744 29.7945Z" fill="#161D5D"/>
<path d="M25.2988 41.6915C27.0742 39.879 30.7906 36.0937 31.453 35.4534C31.6534 35.2595 31.8607 34.9832 32.0601 34.673C32.2434 34.388 32.42 34.0743 32.5788 33.7696C32.8181 33.3105 33.0358 32.9409 33.0634 32.748C33.091 32.5551 33.2082 31.6192 33.0634 31.0919C32.9558 30.6997 32.7635 30.3273 32.4464 30.0565C32.1415 29.7959 31.721 29.6292 31.1494 29.6292C30.7876 29.6292 30.477 29.6898 30.2111 29.7941C29.0331 30.2563 28.7334 31.5785 28.7484 32.3067H25.768C25.7576 31.5521 25.9243 30.8367 26.145 30.2362C26.3959 29.5539 26.7167 29.02 26.927 28.746C27.5887 28.0707 28.1512 27.6003 28.8312 27.2927C29.541 26.9716 30.3788 26.8279 31.5909 26.8138C32.4215 26.8041 33.138 27.0335 33.7159 27.3463C34.4592 27.7486 34.9733 28.2887 35.2061 28.6355C35.6 29.1665 35.8572 29.7089 36.0144 30.2362C36.1694 30.7563 36.2269 31.2617 36.2222 31.7267C36.2137 32.5524 35.8186 33.6117 35.7643 33.7536C35.76 33.7646 35.7563 33.7746 35.7521 33.7856C35.7 33.9231 35.3125 34.9217 34.7684 35.6739C33.6401 37.2335 31.81 39.2185 30.7078 40.339H36.3376V43.0993H25.2988V41.6915Z" fill="#161D5D"/>
<path d="M52.8964 33.792C53.3945 33.792 53.7983 34.1945 53.7983 34.691C53.7983 35.1876 53.3945 35.5901 52.8964 35.5901C52.7009 35.5901 52.5201 35.5279 52.3724 35.4226L42.8975 44.8675C43.0031 45.0148 43.0655 45.195 43.0655 45.3898C43.0655 45.8864 42.6617 46.2889 42.1636 46.2889C41.6655 46.2889 41.2617 45.8864 41.2617 45.3898C41.2617 44.8933 41.6655 44.4908 42.1636 44.4908C42.3357 44.4908 42.4966 44.5388 42.6334 44.6222L52.1263 35.1594C52.0427 35.023 51.9945 34.8626 51.9945 34.691C51.9945 34.1945 52.3983 33.792 52.8964 33.792Z" fill="#039FD3"/>
<path d="M53.7988 45.3898C53.7988 45.8864 53.395 46.2889 52.8969 46.2889C52.3988 46.2889 51.995 45.8864 51.995 45.3898C51.995 45.195 52.0574 45.0148 52.1631 44.8675L42.6882 35.4226C42.5404 35.5279 42.3596 35.5901 42.1642 35.5901C41.6661 35.5901 41.2623 35.1876 41.2623 34.691C41.2623 34.1945 41.6661 33.792 42.1642 33.792C42.6623 33.792 43.0661 34.1945 43.0661 34.691C43.0661 34.8626 43.0179 35.023 42.9342 35.1594L52.4271 44.6222C52.5639 44.5388 52.7248 44.4908 52.8969 44.4908C53.395 44.4908 53.7988 44.8933 53.7988 45.3898Z" fill="#039FD3"/>
<path d="M48.2062 48.1412C47.8557 48.4917 47.2874 48.4917 46.937 48.1412C46.5865 47.7906 46.5865 47.2223 46.937 46.8717C47.0745 46.7341 47.2456 46.6508 47.4239 46.6212V33.285C47.2456 33.2554 47.0745 33.1721 46.937 33.0345C46.5865 32.684 46.5865 32.1156 46.937 31.7651C47.2874 31.4145 47.8557 31.4145 48.2062 31.7651C48.5567 32.1156 48.5567 32.684 48.2062 33.0345C48.0851 33.1557 47.938 33.235 47.7828 33.2724V46.6339C47.938 46.6713 48.0851 46.7506 48.2062 46.8717C48.5567 47.2223 48.5567 47.7906 48.2062 48.1412Z" fill="#039FD3"/>
<path d="M39.3839 40.5873C39.0334 40.2368 39.0334 39.6684 39.3839 39.3179C39.7344 38.9673 40.3026 38.9673 40.6531 39.3179C40.7907 39.4554 40.874 39.6266 40.9036 39.8049H54.2371C54.2667 39.6266 54.35 39.4554 54.4875 39.3179C54.838 38.9673 55.4062 38.9673 55.7567 39.3179C56.1072 39.6684 56.1072 40.2368 55.7567 40.5873C55.4062 40.9379 54.838 40.9379 54.4875 40.5873C54.3664 40.4662 54.2871 40.3191 54.2497 40.1639H40.8909C40.8535 40.3191 40.7742 40.4662 40.6531 40.5873C40.3026 40.9379 39.7344 40.9379 39.3839 40.5873Z" fill="#039FD3"/>
<path d="M52.9343 40.0409C52.9343 43.0158 50.515 45.4275 47.5306 45.4275C44.5463 45.4275 42.127 43.0158 42.127 40.0409C42.127 37.066 44.5463 34.6543 47.5306 34.6543C50.515 34.6543 52.9343 37.066 52.9343 40.0409Z" fill="#1D3B72"/>
<path d="M49.9076 37.6699V42.4101H49.4345C49.2183 42.4101 49.043 42.2128 49.043 41.9693V38.1107C49.043 37.8673 49.2183 37.6699 49.4345 37.6699H49.9076Z" fill="white"/>
<path d="M46.5532 38.4806L45.395 42.1067C45.3372 42.2877 45.1727 42.4101 44.9873 42.4101H44.2871L46.0017 37.6699L46.6044 37.8463L46.5532 38.4806ZM47.9065 42.4101C47.7211 42.4101 47.5567 42.2879 47.4988 42.107L46.3377 38.4806L46.0017 37.6699H46.2904C46.6485 37.6699 46.969 37.8984 47.0944 38.243L48.6101 42.4101H47.9065ZM47.5388 40.6456V41.4106H45.1016V40.6456H47.5388Z" fill="white"/>
<path d="M78.6339 0.709961C76.9286 21.6112 53.8704 14.0515 33.7903 7.62319C29.0332 6.10027 24.7055 5.4002 20.8773 5.55915C11.7783 5.93694 5.50089 10.2166 2.98438 12.9822C10.8515 9.33537 17.3427 9.68744 20.8773 10.1993C22.356 10.4135 23.3255 10.5701 23.6453 10.6446C25.1405 10.9927 25.4494 11.0673 29.5395 12.2742C32.3545 13.2337 36.5646 14.7318 42.9716 17.048C55.5461 21.5938 64.0691 20.9066 66.7588 19.9948C79.3629 16.5233 79.9272 5.69178 78.6339 0.709961Z" fill="#0975BB"/>
<path d="M74.88 20.8615C61.4982 31.9077 47.0616 21.6597 30.8 17.1129C26.7281 15.9744 23.7121 15.3564 19.2434 15.2333C11.4045 14.7717 2.73448 17.8737 0.338066 20.0079C7.40069 17.5849 12.9127 17.8804 16.5001 17.8804C17.2697 17.8804 18.9604 18.1402 19.2434 18.1402C20.2241 18.1402 21.9371 18.4371 25.4873 19.2906C28.2678 19.959 32.7462 21.4031 38.2234 23.5086C46.2914 26.6102 51.035 27.6427 54.7553 28.4525L54.9441 28.4936C63.0623 29.8914 71.0689 26.8732 74.88 20.8615Z" fill="#213E99"/>
</svg>
